<svg xmlns="http://www.w3.org/2000/svg" xmlns:xlink="http://www.w3.org/1999/xlink" width="500" zoomAndPan="magnify" viewBox="0 0 375 374.999991" height="500" preserveAspectRatio="xMidYMid meet" version="1.0"><defs><clipPath id="956a1ebc77"><path d="M 4.996094 279.601562 L 373.367188 279.601562 L 373.367188 294 L 4.996094 294 Z M 4.996094 279.601562 " clip-rule="nonzero"/></clipPath><clipPath id="0d3fed356f"><path d="M 149 13.5 L 199 13.5 L 199 64 L 149 64 Z M 149 13.5 " clip-rule="nonzero"/></clipPath></defs><path fill="#98d0f0" d="M 346.484375 279.9375 L 325.21875 279.9375 C 324.683594 279.9375 324.238281 279.53125 324.191406 278.996094 L 320.851562 240.730469 L 350.855469 240.730469 L 347.511719 278.996094 C 347.464844 279.53125 347.019531 279.9375 346.484375 279.9375 " fill-opacity="1" fill-rule="nonzero"/><path fill="#041734" d="M 352.921875 237.660156 C 352.882812 237.433594 352.683594 237.265625 352.457031 237.265625 L 350.816406 237.265625 L 350.289062 233.941406 C 350.246094 233.671875 350.015625 233.476562 349.742188 233.476562 L 321.960938 233.476562 C 321.691406 233.476562 321.457031 233.671875 321.417969 233.941406 L 320.890625 237.265625 L 319.25 237.265625 C 319.019531 237.265625 318.824219 237.433594 318.785156 237.660156 L 318.214844 241.273438 L 353.492188 241.273438 L 352.921875 237.660156 " fill-opacity="1" fill-rule="nonzero"/><path fill="#041734" d="M 239.425781 62.71875 C 237.835938 62.390625 237.265625 61.546875 236.121094 61.285156 C 227.488281 59.320312 215.847656 65.730469 211.238281 69.335938 C 200.367188 77.835938 196.824219 91.613281 195.363281 100.953125 C 192.917969 116.597656 196.214844 128.796875 196.9375 131.351562 C 199.355469 139.878906 205.714844 157.433594 222.523438 166.5625 C 236.480469 174.144531 250.601562 171.5625 254.9375 170.769531 C 260.152344 169.816406 267.707031 168.335938 274.839844 162.152344 C 277.179688 160.128906 283.699219 153.933594 286.058594 143.851562 C 288.582031 133.078125 286.289062 123.996094 283.4375 117.066406 C 280.328125 109.523438 274.265625 105.523438 268.542969 94.289062 C 264.625 86.59375 266.285156 74.84375 250.253906 65.527344 C 243.820312 61.785156 242.09375 63.269531 239.425781 62.71875 " fill-opacity="1" fill-rule="nonzero"/><path fill="#041734" d="M 278.386719 162.296875 C 280.429688 160.671875 282.285156 158.789062 283.914062 156.710938 C 285.5625 154.644531 286.941406 152.359375 288.082031 149.945312 C 289.210938 147.53125 290.046875 144.941406 290.570312 142.320312 C 291.105469 139.699219 291.386719 137.015625 291.398438 134.324219 C 291.410156 131.632812 291.15625 128.933594 290.648438 126.289062 C 290.140625 123.640625 289.371094 121.050781 288.441406 118.535156 C 288.199219 117.910156 287.964844 117.28125 287.703125 116.664062 L 287.308594 115.742188 C 287.179688 115.433594 287.015625 115.117188 286.871094 114.804688 C 286.28125 113.539062 285.5625 112.351562 284.816406 111.203125 C 283.28125 108.929688 281.554688 106.898438 279.90625 104.910156 C 278.242188 102.925781 276.644531 100.953125 275.175781 98.890625 C 274.796875 98.382812 274.445312 97.859375 274.089844 97.335938 L 273.558594 96.550781 L 273.054688 95.75 C 272.710938 95.21875 272.375 94.683594 272.0625 94.132812 L 271.582031 93.3125 L 271.339844 92.90625 C 271.265625 92.769531 271.203125 92.640625 271.136719 92.507812 C 270.019531 90.433594 269.28125 87.996094 268.4375 85.519531 C 268.019531 84.28125 267.585938 83.023438 267.089844 81.777344 C 266.859375 81.148438 266.558594 80.535156 266.292969 79.917969 C 266.035156 79.292969 265.699219 78.695312 265.390625 78.089844 C 264.121094 75.6875 262.503906 73.453125 260.628906 71.488281 C 259.628906 70.570312 258.691406 69.59375 257.59375 68.808594 L 256.792969 68.195312 C 256.53125 67.988281 256.265625 67.78125 255.976562 67.609375 L 254.292969 66.527344 C 253.742188 66.148438 253.144531 65.855469 252.554688 65.542969 L 250.796875 64.621094 C 249.605469 64.046875 248.382812 63.507812 247.101562 63.113281 C 245.828125 62.722656 244.488281 62.453125 243.148438 62.457031 C 241.800781 62.449219 240.539062 62.785156 239.234375 62.664062 C 239.867188 62.828125 240.53125 62.875 241.1875 62.890625 C 241.839844 62.910156 242.484375 62.925781 243.117188 63.011719 C 244.378906 63.164062 245.585938 63.554688 246.746094 64.070312 C 247.902344 64.59375 249.023438 65.207031 250.113281 65.871094 L 251.71875 66.925781 C 252.253906 67.277344 252.796875 67.613281 253.285156 68.023438 L 254.792969 69.183594 C 255.050781 69.367188 255.28125 69.582031 255.511719 69.796875 L 256.210938 70.433594 C 257.179688 71.246094 257.980469 72.210938 258.839844 73.113281 C 260.425781 75.035156 261.757812 77.128906 262.800781 79.378906 C 263.855469 81.628906 264.613281 84.019531 265.339844 86.496094 C 266.074219 88.96875 266.769531 91.558594 268.039062 94.117188 C 268.113281 94.277344 268.191406 94.441406 268.269531 94.59375 L 268.511719 95.03125 L 269.003906 95.90625 C 269.320312 96.492188 269.667969 97.0625 270.019531 97.628906 L 270.542969 98.484375 L 271.089844 99.324219 C 271.453125 99.882812 271.816406 100.445312 272.207031 100.984375 C 273.738281 103.171875 275.410156 105.253906 277.078125 107.261719 C 278.761719 109.261719 280.410156 111.203125 281.804688 113.230469 C 282.492188 114.25 283.140625 115.28125 283.667969 116.367188 C 283.800781 116.640625 283.941406 116.898438 284.070312 117.1875 L 284.457031 118.050781 C 284.707031 118.628906 284.953125 119.210938 285.195312 119.792969 C 286.132812 122.125 286.902344 124.519531 287.480469 126.957031 C 288.039062 129.394531 288.398438 131.882812 288.515625 134.386719 C 288.640625 136.890625 288.523438 139.414062 288.195312 141.917969 C 287.871094 144.425781 287.289062 146.871094 286.421875 149.257812 C 285.574219 151.648438 284.441406 153.949219 283.082031 156.128906 C 282.417969 157.230469 281.675781 158.285156 280.890625 159.3125 C 280.113281 160.347656 279.269531 161.332031 278.386719 162.296875 " fill-opacity="1" fill-rule="nonzero"/><path fill="#98d0f0" d="M 307.210938 186.660156 C 302.386719 160.867188 292.570312 159.679688 290.386719 159.289062 C 279.371094 157.3125 270.417969 154.023438 260.605469 151.15625 C 248.855469 147.722656 245.703125 147.339844 238.824219 148.203125 C 227.601562 149.605469 229.625 152.367188 212.441406 156.59375 C 204.332031 158.589844 198.242188 160.871094 197.101562 161.359375 C 193.878906 162.738281 187.34375 166.238281 184.398438 172.859375 C 181.066406 180.355469 170.484375 210.097656 168.414062 223.441406 C 166.015625 238.90625 164.851562 250.386719 165.546875 259.875 C 166.242188 269.363281 166.695312 292.195312 192.5625 280.296875 C 192.515625 281.523438 192.46875 282.753906 192.410156 283.980469 L 280.796875 283.980469 C 280.691406 283.183594 280.589844 282.398438 280.492188 281.625 C 284.457031 280.734375 288.445312 277.59375 292.878906 271.089844 C 298.695312 262.558594 306.832031 239.859375 307.96875 224.789062 C 308.765625 214.203125 309.429688 198.535156 307.210938 186.660156 " fill-opacity="1" fill-rule="nonzero"/><path fill="#98d0f0" d="M 163.835938 278.683594 C 166.53125 281.222656 169.871094 281.460938 175.472656 281.011719 C 181.035156 280.5625 184.933594 275.003906 186.761719 271.730469 C 189.347656 267.097656 189.621094 261.582031 189.351562 258.011719 C 188.851562 251.34375 187.691406 248.105469 185.101562 244.675781 C 183.496094 242.546875 181.835938 240.34375 180.40625 237.117188 C 180.226562 236.710938 179.777344 236.5 179.351562 236.625 C 178.941406 236.742188 178.675781 237.140625 178.726562 237.5625 C 179.453125 243.898438 173.433594 251.707031 167.035156 255.253906 C 163.191406 257.382812 159.898438 257.582031 158 255.792969 C 157.804688 255.605469 157.621094 255.398438 157.449219 255.171875 C 157.214844 254.855469 156.808594 254.722656 156.441406 254.851562 L 156.339844 254.890625 C 155.9375 255.03125 155.695312 255.441406 155.765625 255.863281 C 156.949219 263.027344 158.246094 268.515625 159.433594 271.363281 C 160.960938 275.027344 162.277344 277.214844 163.835938 278.683594 " fill-opacity="1" fill-rule="nonzero"/><path fill="#041734" d="M 179.140625 235.886719 C 179.601562 236.554688 179.871094 237.347656 180.027344 238.148438 C 180.183594 238.953125 180.210938 239.777344 180.160156 240.589844 C 180.046875 242.210938 179.613281 243.777344 178.992188 245.234375 C 178.683594 245.964844 178.308594 246.65625 177.890625 247.320312 C 177.464844 247.976562 176.992188 248.605469 176.476562 249.1875 C 176.214844 249.480469 175.949219 249.761719 175.679688 250.042969 C 175.402344 250.320312 175.132812 250.597656 174.851562 250.863281 C 174.292969 251.402344 173.714844 251.914062 173.140625 252.429688 C 171.976562 253.4375 170.738281 254.367188 169.40625 255.164062 C 169.078125 255.363281 168.726562 255.542969 168.386719 255.726562 C 168.035156 255.898438 167.6875 256.074219 167.335938 256.222656 C 166.636719 256.539062 165.902344 256.804688 165.164062 257.039062 C 164.417969 257.257812 163.652344 257.425781 162.871094 257.523438 C 162.089844 257.613281 161.289062 257.625 160.496094 257.503906 C 159.707031 257.382812 158.929688 257.128906 158.25 256.703125 C 158.167969 256.648438 158.082031 256.601562 158 256.542969 L 157.769531 256.355469 C 157.691406 256.292969 157.609375 256.238281 157.542969 256.164062 L 157.332031 255.953125 C 157.058594 255.6875 156.832031 255.367188 156.636719 255.042969 L 156.957031 254.804688 C 157.203125 255.0625 157.457031 255.296875 157.75 255.484375 C 157.886719 255.578125 158.023438 255.675781 158.179688 255.746094 L 158.402344 255.859375 C 158.476562 255.894531 158.558594 255.921875 158.636719 255.953125 C 159.257812 256.191406 159.921875 256.28125 160.582031 256.257812 C 161.246094 256.230469 161.90625 256.121094 162.554688 255.925781 C 163.203125 255.730469 163.835938 255.476562 164.449219 255.179688 C 165.0625 254.875 165.664062 254.550781 166.246094 254.171875 C 166.828125 253.804688 167.375 253.402344 167.910156 252.972656 C 168.988281 252.132812 169.984375 251.171875 170.902344 250.152344 C 171.824219 249.132812 172.601562 247.984375 173.308594 246.824219 C 174.019531 245.660156 174.730469 244.527344 175.445312 243.402344 C 176.160156 242.273438 176.835938 241.128906 177.417969 239.921875 C 177.710938 239.320312 177.976562 238.703125 178.207031 238.058594 C 178.4375 237.410156 178.621094 236.734375 178.75 235.980469 L 179.140625 235.886719 " fill-opacity="1" fill-rule="nonzero"/><path fill="#041734" d="M 283.414062 275.417969 C 282.515625 276.289062 281.410156 276.960938 280.179688 277.40625 C 278.949219 277.847656 277.582031 278.007812 276.230469 277.859375 C 274.878906 277.710938 273.5625 277.261719 272.390625 276.605469 C 271.207031 275.964844 270.167969 275.125 269.242188 274.207031 C 268.78125 273.75 268.359375 273.261719 267.945312 272.765625 C 267.546875 272.257812 267.164062 271.75 266.792969 271.238281 C 266.054688 270.207031 265.378906 269.136719 264.777344 268.019531 C 263.566406 265.792969 262.644531 263.425781 261.976562 261.003906 C 260.660156 256.152344 260.363281 251.125 260.691406 246.214844 C 261.011719 241.292969 261.929688 236.457031 263.195312 231.746094 C 263.226562 231.636719 263.335938 231.574219 263.445312 231.601562 C 263.550781 231.628906 263.609375 231.730469 263.59375 231.832031 C 263.203125 234.230469 262.886719 236.636719 262.648438 239.042969 C 262.425781 241.453125 262.292969 243.863281 262.289062 246.265625 C 262.265625 251.066406 262.78125 255.863281 264.167969 260.371094 C 264.871094 262.617188 265.78125 264.789062 266.941406 266.816406 C 267.523438 267.828125 268.160156 268.808594 268.851562 269.75 L 269.378906 270.445312 L 269.9375 271.101562 C 270.3125 271.539062 270.699219 271.957031 271.101562 272.359375 C 272.6875 273.957031 274.503906 275.273438 276.601562 275.851562 C 277.648438 276.148438 278.761719 276.25 279.910156 276.167969 C 281.0625 276.101562 282.222656 275.800781 283.414062 275.417969 " fill-opacity="1" fill-rule="nonzero"/><path fill="#041734" d="M 192.984375 172.363281 C 190.515625 181.269531 187.507812 190 185.511719 199.101562 C 185.027344 201.378906 184.589844 203.671875 184.308594 206.003906 C 184.15625 207.167969 184.054688 208.34375 183.980469 209.523438 C 183.910156 210.703125 183.902344 211.894531 183.941406 213.089844 C 183.996094 214.285156 184.128906 215.496094 184.308594 216.671875 C 184.507812 217.84375 184.742188 219.007812 185.023438 220.148438 C 185.566406 222.441406 186.246094 224.671875 186.921875 226.886719 C 188.300781 231.308594 189.714844 235.671875 190.914062 240.089844 C 191.070312 240.640625 191.207031 241.195312 191.355469 241.75 C 191.503906 242.300781 191.640625 242.859375 191.777344 243.414062 C 192.0625 244.519531 192.316406 245.632812 192.574219 246.75 C 193.066406 248.980469 193.515625 251.222656 193.902344 253.476562 C 194.65625 257.988281 195.222656 262.539062 195.511719 267.125 C 195.832031 271.710938 195.910156 276.320312 195.886719 280.945312 C 196.558594 276.367188 196.871094 271.730469 196.914062 267.082031 C 196.925781 264.761719 196.871094 262.433594 196.734375 260.109375 C 196.59375 257.785156 196.367188 255.46875 196.078125 253.152344 C 195.765625 250.84375 195.410156 248.535156 194.953125 246.25 C 194.71875 245.105469 194.488281 243.964844 194.226562 242.828125 C 194.09375 242.261719 193.960938 241.691406 193.820312 241.128906 C 193.679688 240.5625 193.546875 239.996094 193.394531 239.433594 C 192.824219 237.175781 192.164062 234.945312 191.492188 232.722656 C 190.8125 230.503906 190.09375 228.304688 189.394531 226.113281 C 188.679688 223.921875 188.003906 221.734375 187.414062 219.546875 C 187.113281 218.457031 186.871094 217.359375 186.652344 216.261719 C 186.4375 215.164062 186.300781 214.078125 186.21875 212.96875 C 186.085938 210.746094 186.160156 208.488281 186.371094 206.226562 C 186.578125 203.964844 186.902344 201.703125 187.292969 199.445312 C 188.050781 194.921875 189.105469 190.433594 190.117188 185.929688 L 190.890625 182.554688 C 191.148438 181.425781 191.390625 180.296875 191.640625 179.167969 C 192.132812 176.910156 192.59375 174.640625 192.984375 172.363281 " fill-opacity="1" fill-rule="nonzero"/><path fill="#f3f5f9" d="M 224.1875 133.222656 C 223.242188 136.390625 224.832031 156.992188 225.863281 160.152344 C 227.886719 166.378906 235.390625 168.035156 241.769531 167.179688 C 250.941406 165.949219 255.027344 162.707031 255.3125 156.007812 C 255.800781 144.636719 255.523438 136.773438 256.996094 118.863281 C 257.390625 114.054688 226.015625 127.109375 224.1875 133.222656 " fill-opacity="1" fill-rule="nonzero"/><path fill="#98d0f0" d="M 215.460938 112.949219 C 215.460938 117.414062 213.503906 126.273438 211.839844 127.554688 C 209.824219 129.109375 206.816406 128.441406 206.324219 128.25 C 203.390625 127.125 201.179688 121.402344 201.179688 112.949219 C 201.179688 104.5 203.246094 98.28125 206.324219 97.652344 C 206.617188 97.589844 210.664062 96.5625 212.292969 98.730469 C 214.949219 102.261719 215.460938 107.976562 215.460938 112.949219 " fill-opacity="1" fill-rule="nonzero"/><path fill="#041734" d="M 215.558594 112.957031 C 215.558594 121.40625 213.257812 128.257812 210.414062 128.257812 C 207.574219 128.257812 205.273438 121.40625 205.273438 112.957031 C 205.273438 104.503906 207.574219 97.65625 210.414062 97.65625 C 213.257812 97.65625 215.558594 104.503906 215.558594 112.957031 " fill-opacity="1" fill-rule="nonzero"/><path fill="#f3f5f9" d="M 209.804688 80.261719 C 205.03125 89.410156 205.5625 105.238281 206.296875 108.617188 C 207.03125 112 207.488281 111.535156 206.96875 113.4375 C 206.457031 115.339844 207.160156 120.765625 209.84375 127.296875 C 212.527344 133.824219 218.582031 142.246094 221.304688 144.054688 C 224.667969 146.289062 227.269531 146.6875 231.300781 146.039062 C 235.335938 145.394531 244.4375 139.882812 249.632812 131.371094 C 253.710938 124.691406 256.710938 119.199219 256.761719 114.871094 C 256.8125 110.542969 260.109375 96.664062 255.773438 88.730469 C 251.433594 80.796875 248.136719 74.492188 236.753906 71.492188 C 233.777344 70.707031 218.546875 63.503906 209.804688 80.261719 " fill-opacity="1" fill-rule="nonzero"/><path fill="#041734" d="M 209.84375 127.296875 C 210.601562 128.789062 211.421875 130.242188 212.296875 131.65625 C 212.511719 132.011719 212.726562 132.371094 212.953125 132.71875 C 213.179688 133.066406 213.394531 133.421875 213.632812 133.765625 L 214.320312 134.804688 L 215.023438 135.832031 C 215.988281 137.183594 216.960938 138.53125 218.007812 139.808594 L 218.394531 140.289062 L 218.792969 140.761719 L 219.191406 141.230469 L 219.605469 141.6875 C 220.152344 142.289062 220.734375 142.871094 221.339844 143.339844 C 221.625 143.570312 221.988281 143.789062 222.328125 144.003906 L 222.851562 144.308594 L 223.382812 144.59375 C 224.09375 144.957031 224.835938 145.25 225.601562 145.453125 C 226.363281 145.660156 227.152344 145.765625 227.957031 145.796875 C 228.757812 145.820312 229.574219 145.785156 230.390625 145.703125 C 230.796875 145.65625 231.21875 145.613281 231.597656 145.546875 C 231.988281 145.472656 232.375 145.367188 232.769531 145.253906 C 233.546875 145.019531 234.316406 144.710938 235.070312 144.378906 C 236.589844 143.710938 238.046875 142.902344 239.488281 142.046875 C 238.199219 143.117188 236.808594 144.070312 235.328125 144.898438 C 234.585938 145.304688 233.824219 145.675781 233.019531 145.988281 C 232.617188 146.144531 232.207031 146.277344 231.78125 146.382812 C 231.339844 146.488281 230.929688 146.550781 230.507812 146.621094 C 228.832031 146.898438 227.050781 146.945312 225.328125 146.542969 C 224.464844 146.339844 223.636719 146.023438 222.855469 145.640625 L 222.28125 145.339844 L 221.71875 145.011719 C 221.347656 144.785156 220.988281 144.574219 220.621094 144.28125 C 219.910156 143.71875 219.316406 143.101562 218.746094 142.464844 L 218.324219 141.984375 L 217.914062 141.496094 L 217.507812 141.003906 L 217.125 140.503906 C 216.101562 139.152344 215.136719 137.773438 214.253906 136.339844 C 213.355469 134.914062 212.542969 133.4375 211.789062 131.9375 C 211.046875 130.429688 210.363281 128.890625 209.84375 127.296875 " fill-opacity="1" fill-rule="nonzero"/><path fill="#98d0f0" d="M 233.675781 132.496094 C 233.84375 132.226562 233.667969 131.875 233.351562 131.84375 C 231.984375 131.726562 228.667969 131.507812 224.886719 131.789062 C 222.292969 131.984375 219.851562 132.585938 218.839844 132.863281 C 218.570312 132.9375 218.449219 133.238281 218.582031 133.480469 C 219.261719 134.738281 221.492188 138.019531 226.109375 137.625 C 230.265625 137.273438 232.804688 133.878906 233.675781 132.496094 " fill-opacity="1" fill-rule="nonzero"/><path fill="#041734" d="M 214.964844 103.332031 C 214.65625 102.625 214.175781 102.046875 213.628906 101.550781 C 213.082031 101.046875 212.453125 100.644531 211.773438 100.328125 C 210.40625 99.675781 208.804688 99.738281 207.347656 99.949219 C 206.980469 100.007812 206.613281 100.050781 206.257812 100.152344 L 205.722656 100.285156 C 204.230469 100.886719 205.136719 102.195312 205.683594 102.09375 L 206.089844 102.03125 L 206.550781 101.996094 C 206.851562 101.960938 207.15625 101.984375 207.457031 101.984375 C 207.757812 101.988281 208.058594 102.046875 208.351562 102.085938 C 208.648438 102.160156 208.9375 102.210938 209.222656 102.308594 C 209.796875 102.46875 210.355469 102.628906 210.949219 102.738281 L 212.777344 103.128906 C 213.410156 103.269531 214.0625 103.414062 214.808594 103.53125 L 214.964844 103.332031 " fill-opacity="1" fill-rule="nonzero"/><path fill="#041734" d="M 242.875 100.058594 C 241.550781 98.988281 240 98.203125 238.339844 97.621094 C 236.675781 97.054688 234.859375 96.820312 233.027344 96.949219 C 232.566406 96.96875 232.113281 97.046875 231.648438 97.078125 C 231.1875 97.148438 230.726562 97.234375 230.261719 97.324219 C 229.347656 97.539062 228.476562 97.945312 227.726562 98.511719 C 226.238281 99.644531 225.066406 101.203125 224.738281 103.089844 L 224.996094 103.296875 C 226.726562 102.589844 228.066406 101.910156 229.425781 101.339844 C 230.097656 101.054688 230.730469 100.742188 231.375 100.394531 C 231.699219 100.234375 232.03125 100.066406 232.371094 99.914062 C 232.714844 99.789062 233.0625 99.644531 233.425781 99.558594 C 234.152344 99.386719 234.898438 99.242188 235.664062 99.214844 C 236.429688 99.144531 237.210938 99.160156 237.996094 99.234375 C 239.578125 99.34375 241.164062 99.753906 242.707031 100.34375 L 242.875 100.058594 " fill-opacity="1" fill-rule="nonzero"/><path fill="#041734" d="M 233.78125 106.738281 C 232.8125 104.460938 228.71875 105.363281 229.621094 108.457031 C 230.523438 111.554688 235.332031 110.398438 233.78125 106.738281 " fill-opacity="1" fill-rule="nonzero"/><path fill="#041734" d="M 211.132812 109.238281 C 210.320312 107.316406 206.867188 108.074219 207.628906 110.679688 C 208.390625 113.292969 212.441406 112.320312 211.132812 109.238281 " fill-opacity="1" fill-rule="nonzero"/><path fill="#041734" d="M 228.4375 108.46875 C 228.476562 108.617188 228.6875 108.605469 228.714844 108.457031 C 228.777344 108.078125 228.886719 107.730469 229.058594 107.445312 C 229.3125 107.019531 229.675781 106.789062 230.105469 106.683594 C 230.324219 106.625 230.558594 106.601562 230.800781 106.589844 C 230.921875 106.585938 231.046875 106.589844 231.171875 106.597656 C 231.296875 106.601562 231.429688 106.609375 231.5625 106.621094 C 232.089844 106.664062 232.628906 106.738281 233.167969 106.824219 C 234.25 107.003906 235.347656 107.222656 236.460938 107.429688 C 237.402344 107.601562 238.347656 107.777344 239.332031 107.894531 C 239.480469 107.910156 239.550781 107.71875 239.429688 107.636719 C 239.089844 107.410156 238.734375 107.210938 238.378906 107.023438 C 237.863281 106.75 237.332031 106.511719 236.789062 106.292969 C 235.707031 105.863281 234.578125 105.535156 233.402344 105.351562 C 232.816406 105.257812 232.214844 105.207031 231.601562 105.214844 C 231.445312 105.21875 231.292969 105.226562 231.136719 105.238281 C 230.972656 105.25 230.8125 105.273438 230.648438 105.300781 C 230.324219 105.355469 229.996094 105.457031 229.679688 105.609375 C 229.367188 105.765625 229.0625 105.980469 228.835938 106.261719 C 228.605469 106.539062 228.453125 106.871094 228.382812 107.199219 C 228.316406 107.527344 228.316406 107.851562 228.367188 108.15625 C 228.382812 108.261719 228.410156 108.367188 228.4375 108.46875 " fill-opacity="1" fill-rule="nonzero"/><path fill="#041734" d="M 206.691406 110.121094 C 206.734375 110.335938 207.035156 110.335938 207.09375 110.128906 C 207.160156 109.90625 207.246094 109.703125 207.359375 109.53125 C 207.582031 109.191406 207.875 109.027344 208.226562 108.949219 C 208.402344 108.90625 208.597656 108.894531 208.792969 108.886719 C 208.894531 108.882812 208.996094 108.890625 209.101562 108.894531 C 209.203125 108.902344 209.316406 108.910156 209.425781 108.917969 C 209.867188 108.964844 210.320312 109.027344 210.773438 109.101562 C 211.683594 109.25 212.613281 109.425781 213.554688 109.585938 C 214.277344 109.703125 215.007812 109.820312 215.761719 109.890625 C 215.976562 109.910156 216.078125 109.628906 215.898438 109.511719 C 215.679688 109.367188 215.457031 109.230469 215.226562 109.101562 C 214.792969 108.855469 214.34375 108.640625 213.886719 108.449219 C 212.96875 108.070312 212.011719 107.78125 211.007812 107.625 C 210.507812 107.546875 209.992188 107.503906 209.464844 107.515625 C 209.332031 107.519531 209.203125 107.527344 209.0625 107.539062 C 208.921875 107.550781 208.785156 107.570312 208.644531 107.597656 C 208.363281 107.648438 208.074219 107.738281 207.800781 107.875 C 207.527344 108.015625 207.261719 108.207031 207.066406 108.457031 C 206.863281 108.703125 206.738281 109 206.683594 109.285156 C 206.628906 109.574219 206.636719 109.851562 206.6875 110.113281 C 206.691406 110.117188 206.691406 110.117188 206.691406 110.121094 " fill-opacity="1" fill-rule="nonzero"/><path fill="#041734" d="M 234.261719 131.519531 C 234.023438 131.746094 233.773438 131.949219 233.511719 132.144531 C 233.25 132.339844 232.980469 132.519531 232.707031 132.695312 C 232.15625 133.042969 231.582031 133.351562 230.988281 133.628906 C 230.394531 133.902344 229.78125 134.136719 229.15625 134.339844 C 228.527344 134.53125 227.890625 134.699219 227.238281 134.820312 C 227.078125 134.851562 226.914062 134.878906 226.753906 134.90625 C 226.589844 134.933594 226.425781 134.96875 226.261719 134.988281 L 225.773438 135.0625 C 225.605469 135.082031 225.441406 135.097656 225.277344 135.113281 L 225.027344 135.136719 L 224.78125 135.148438 C 224.613281 135.15625 224.449219 135.160156 224.28125 135.160156 C 224.117188 135.15625 223.953125 135.148438 223.789062 135.136719 L 223.539062 135.121094 L 223.289062 135.09375 L 222.800781 135.023438 C 222.636719 134.996094 222.472656 134.964844 222.3125 134.929688 C 221.988281 134.867188 221.667969 134.78125 221.351562 134.6875 C 221.191406 134.640625 221.035156 134.589844 220.882812 134.53125 C 220.726562 134.476562 220.570312 134.417969 220.417969 134.355469 C 220.265625 134.296875 220.117188 134.222656 219.964844 134.152344 C 219.820312 134.078125 219.671875 134.003906 219.527344 133.921875 L 219.558594 133.804688 C 219.890625 133.789062 220.214844 133.800781 220.535156 133.808594 C 220.699219 133.8125 220.859375 133.8125 221.015625 133.820312 C 221.097656 133.820312 221.175781 133.824219 221.253906 133.828125 C 221.332031 133.832031 221.414062 133.832031 221.492188 133.832031 C 221.652344 133.835938 221.808594 133.839844 221.964844 133.847656 L 222.085938 133.851562 L 222.203125 133.851562 L 222.4375 133.855469 C 222.59375 133.855469 222.75 133.867188 222.90625 133.867188 L 223.375 133.871094 L 223.605469 133.875 L 223.835938 133.875 C 223.992188 133.875 224.144531 133.878906 224.300781 133.886719 C 224.457031 133.886719 224.609375 133.886719 224.765625 133.894531 L 225 133.902344 L 225.230469 133.902344 C 225.851562 133.925781 226.476562 133.910156 227.097656 133.851562 C 227.71875 133.789062 228.332031 133.683594 228.945312 133.550781 C 229.558594 133.425781 230.167969 133.261719 230.761719 133.0625 C 231.363281 132.863281 231.949219 132.628906 232.523438 132.359375 C 232.808594 132.226562 233.09375 132.082031 233.371094 131.929688 C 233.648438 131.773438 233.921875 131.609375 234.179688 131.425781 L 234.261719 131.519531 " fill-opacity="1" fill-rule="nonzero"/><path fill="#041734" d="M 238.144531 67.800781 C 238.144531 67.800781 237.835938 67.898438 237.539062 68.054688 C 235.640625 69.039062 233.898438 72.632812 233.476562 77.101562 C 233.269531 79.300781 233.359375 80.914062 233.726562 82.972656 C 235.46875 92.71875 247.507812 92.875 251.355469 102.210938 C 254.601562 110.09375 257.410156 105.734375 258.273438 102.519531 C 261.996094 88.644531 263.09375 77.808594 243.460938 68.261719 C 242.222656 67.660156 239.523438 67.363281 238.144531 67.800781 " fill-opacity="1" fill-rule="nonzero"/><path fill="#041734" d="M 235.4375 67.769531 C 233.445312 66.933594 221.039062 60.085938 208.53125 73.59375 C 201.539062 81.148438 202.53125 94.46875 202.839844 98.519531 C 203.085938 101.6875 205.421875 103.671875 205.792969 103.691406 C 206.460938 103.726562 201.578125 92.105469 225.363281 85.015625 C 232.117188 83.003906 234.480469 78.441406 235.019531 77.886719 C 236.871094 75.980469 239.453125 72.140625 238.09375 69.664062 C 237.539062 68.648438 236.515625 68.222656 235.4375 67.769531 " fill-opacity="1" fill-rule="nonzero"/><path fill="#f79556" d="M 255.035156 105.652344 C 255.71875 104.375 257.6875 102.171875 260.597656 104.035156 C 263.507812 105.894531 263.34375 108.9375 262.644531 113.289062 C 261.949219 117.636719 258.992188 122.730469 256.503906 123.449219 C 254.015625 124.164062 254.003906 122.492188 253.515625 120.320312 C 253.027344 118.152344 253.300781 108.875 255.035156 105.652344 " fill-opacity="1" fill-rule="nonzero"/><path fill="#041734" d="M 253.957031 113.785156 C 253.957031 127.609375 245.714844 140.03125 235.742188 140.03125 C 235.085938 140.03125 234.429688 139.976562 233.785156 139.878906 C 233.785156 139.855469 233.789062 139.828125 233.789062 139.804688 C 233.789062 138.425781 231.976562 137.3125 229.738281 137.3125 C 227.496094 137.3125 225.683594 138.425781 225.683594 139.804688 C 225.683594 141.179688 227.496094 142.296875 229.738281 142.296875 C 231.1875 142.296875 232.457031 141.824219 233.171875 141.121094 C 234.222656 141.394531 235.390625 141.5 236.738281 141.5 C 248.085938 141.5 257.691406 129.820312 257.691406 114.375 L 253.957031 113.785156 " fill-opacity="1" fill-rule="nonzero"/><path fill="#98d0f0" d="M 216.101562 67.28125 L 216.234375 67.167969 C 216.816406 66.648438 220.078125 63.890625 227.585938 63.820312 C 246.296875 63.648438 260.179688 79.671875 260.179688 100.628906 L 256.183594 101.425781 C 256.183594 82.667969 241.972656 65.429688 225.988281 65.226562 C 220.125 65.152344 217.28125 66.480469 216.101562 67.292969 L 216.101562 67.28125 " fill-opacity="1" fill-rule="nonzero"/><path fill="#98d0f0" d="M 265.691406 112.515625 C 265.691406 116.976562 263.730469 125.835938 262.066406 127.117188 C 260.046875 128.671875 257.042969 128.003906 256.550781 127.8125 C 253.617188 126.6875 251.40625 120.964844 251.40625 112.515625 C 251.40625 104.0625 253.472656 97.84375 256.550781 97.214844 C 256.84375 97.15625 260.894531 96.125 262.519531 98.292969 C 265.175781 101.824219 265.691406 107.539062 265.691406 112.515625 " fill-opacity="1" fill-rule="nonzero"/><path fill="#041734" d="M 265.101562 112.621094 C 265.101562 121.015625 262.953125 127.820312 260.300781 127.820312 C 257.648438 127.820312 255.5 121.015625 255.5 112.621094 C 255.5 104.226562 257.648438 97.417969 260.300781 97.417969 C 262.953125 97.417969 265.101562 104.226562 265.101562 112.621094 " fill-opacity="1" fill-rule="nonzero"/><path fill="#98d0f0" d="M 264.675781 112.621094 C 264.675781 119.933594 262.851562 125.859375 260.597656 125.859375 C 258.347656 125.859375 256.523438 119.933594 256.523438 112.621094 C 256.523438 105.308594 258.347656 99.378906 260.597656 99.378906 C 262.851562 99.378906 264.675781 105.308594 264.675781 112.621094 " fill-opacity="1" fill-rule="nonzero"/><path fill="#f3f5f9" d="M 279.140625 130.71875 C 278.730469 127.308594 277.183594 124.605469 276.851562 121.183594 C 276.832031 120.960938 276.8125 120.132812 276.210938 119.527344 C 274.75 118.054688 271.367188 117.203125 267.867188 114.742188 C 267.488281 114.472656 265.277344 112.542969 264.582031 112.832031 C 264.304688 112.949219 263.984375 113.132812 263.792969 113.429688 C 263.335938 114.144531 263.316406 115.140625 263.386719 115.628906 C 263.492188 116.316406 263.828125 117.226562 264.871094 118.101562 C 267.84375 120.59375 271.503906 122.054688 271.917969 122.578125 C 272.566406 123.394531 271.648438 125.808594 271.515625 126.800781 C 270.5 134.691406 274.578125 136.675781 273.722656 140.054688 C 273.546875 140.734375 273.074219 141.792969 272.199219 142.039062 C 271.019531 142.371094 270.125 141.90625 266.800781 139.929688 C 266.234375 139.59375 259.226562 135.484375 257.441406 137.445312 C 256.808594 138.140625 257.238281 139.554688 257.980469 140.15625 C 258.597656 140.65625 260.804688 142.257812 262.992188 143.5625 C 266.140625 145.441406 266.804688 145.789062 268 146.964844 C 269.207031 148.160156 268.960938 147.675781 270.148438 149.566406 C 271.9375 152.410156 274.445312 153.847656 275.800781 154.628906 C 278.085938 155.941406 281.640625 156.3125 283.488281 155.09375 C 285.257812 153.921875 284.597656 151.976562 283.925781 147.679688 C 282.484375 138.429688 280.035156 138.101562 279.140625 130.71875 " fill-opacity="1" fill-rule="nonzero"/><path fill="#f3f5f9" d="M 297.03125 197.8125 C 293.722656 173.773438 294.269531 177.644531 292.871094 170.425781 C 292.261719 167.28125 291.828125 163.144531 291.101562 159.308594 C 290.660156 156.957031 288.644531 148.585938 288.332031 147.757812 C 287 144.195312 284.671875 137.640625 283.476562 132.996094 C 283.324219 132.394531 282.933594 130.847656 281.601562 129.839844 C 280.808594 129.234375 269.125 123.746094 267.214844 122.898438 C 265.359375 122.074219 262.792969 123.4375 258.367188 123.972656 C 256.6875 124.175781 255.910156 124.621094 255.648438 124.75 C 253.820312 125.652344 253.5 126.367188 250.746094 128.695312 C 249.957031 129.359375 249.421875 129.847656 249.328125 130.519531 C 249.128906 131.941406 250.8125 131.792969 250.875 131.894531 C 250.96875 132.054688 250.578125 132.484375 249.5 133.441406 C 248.046875 134.722656 247.699219 134.871094 247.472656 135.472656 C 247.398438 135.671875 246.867188 136.675781 247.515625 137.214844 C 249.328125 138.71875 251.328125 138.011719 252.105469 137.570312 C 253.742188 136.636719 253.535156 136.023438 255.0625 135.089844 C 255.65625 134.726562 255.367188 135.015625 258.429688 133.824219 C 259.6875 133.335938 260.253906 133.085938 261.148438 133.046875 C 262.039062 133.011719 262.699219 133.203125 263.136719 133.328125 C 267.546875 134.558594 270.59375 135.511719 270.25 136.351562 C 269.808594 137.449219 267.164062 135.628906 262.660156 136.734375 C 261.335938 137.058594 260.410156 137.449219 259.292969 138 C 255.832031 139.699219 256.117188 140.917969 253.210938 142.066406 C 252.191406 142.46875 251.050781 142.757812 250.65625 143.734375 C 250.644531 143.773438 250.308594 144.617188 250.742188 145.195312 C 251.71875 146.488281 254.457031 145.460938 255.085938 145.226562 C 259.960938 143.40625 261.679688 141.996094 262.226562 141.882812 C 262.613281 141.804688 266.0625 141.253906 268.316406 141.871094 C 268.535156 141.929688 268.824219 142.058594 269.410156 142.3125 C 271.085938 143.046875 272.238281 143.792969 272.378906 143.886719 C 274.144531 145.058594 273.195312 147.660156 275.605469 151.867188 C 278.4375 156.8125 277.65625 158.066406 277.792969 162.980469 C 278.332031 182.34375 277.621094 196.011719 274.539062 207.996094 C 271.894531 218.269531 270.566406 219.472656 268.167969 228.8125 C 271.144531 232.488281 276.222656 236.691406 283.867188 236.691406 C 287.804688 236.6875 292.113281 235.578125 296.667969 233.394531 L 297.882812 232.8125 C 298.640625 222.597656 298.660156 209.628906 297.03125 197.8125 " fill-opacity="1" fill-rule="nonzero"/><path fill="#041734" d="M 283.441406 132.992188 C 283.179688 131.945312 282.703125 130.917969 281.910156 130.179688 C 281.53125 129.789062 281.023438 129.582031 280.542969 129.328125 C 280.058594 129.085938 279.566406 128.847656 279.078125 128.613281 C 277.121094 127.667969 275.148438 126.746094 273.175781 125.832031 C 271.203125 124.921875 269.226562 124.007812 267.242188 123.125 C 266.296875 122.671875 265.203125 122.84375 264.15625 123.050781 C 263.101562 123.269531 262.050781 123.550781 260.976562 123.773438 C 260.445312 123.890625 259.90625 123.992188 259.363281 124.078125 C 258.824219 124.167969 258.269531 124.226562 257.753906 124.316406 C 257.234375 124.414062 256.722656 124.550781 256.242188 124.746094 C 256.121094 124.796875 256.003906 124.851562 255.890625 124.910156 L 255.53125 125.09375 C 255.296875 125.214844 255.070312 125.351562 254.847656 125.492188 C 253.976562 126.058594 253.226562 126.855469 252.414062 127.585938 C 252.011719 127.953125 251.605469 128.320312 251.191406 128.675781 C 250.777344 129.039062 250.355469 129.375 250.023438 129.75 C 249.863281 129.9375 249.730469 130.132812 249.660156 130.335938 C 249.59375 130.535156 249.574219 130.777344 249.621094 130.953125 C 249.667969 131.128906 249.785156 131.25 249.972656 131.347656 C 250.15625 131.4375 250.390625 131.484375 250.652344 131.515625 L 250.757812 131.53125 C 250.800781 131.539062 250.832031 131.539062 250.914062 131.5625 C 250.933594 131.523438 251.183594 131.757812 251.152344 131.796875 C 251.183594 131.875 251.179688 131.925781 251.179688 131.984375 C 251.175781 132.039062 251.164062 132.070312 251.152344 132.109375 C 251.144531 132.144531 251.128906 132.167969 251.117188 132.199219 C 251.019531 132.386719 250.921875 132.488281 250.824219 132.601562 C 250.628906 132.820312 250.425781 133.011719 250.226562 133.199219 C 249.820312 133.574219 249.414062 133.9375 249 134.292969 L 248.382812 134.824219 C 248.1875 135 248 135.171875 247.890625 135.34375 C 247.863281 135.386719 247.839844 135.429688 247.816406 135.480469 C 247.804688 135.503906 247.792969 135.527344 247.78125 135.554688 L 247.742188 135.65625 C 247.6875 135.78125 247.644531 135.890625 247.609375 136.007812 C 247.535156 136.230469 247.5 136.457031 247.539062 136.628906 C 247.558594 136.710938 247.582031 136.785156 247.632812 136.84375 C 247.652344 136.878906 247.6875 136.898438 247.71875 136.933594 L 247.867188 137.042969 L 248.015625 137.15625 C 248.066406 137.1875 248.121094 137.21875 248.175781 137.25 L 248.332031 137.347656 L 248.5 137.425781 C 248.945312 137.632812 249.425781 137.746094 249.917969 137.742188 C 250.414062 137.742188 250.90625 137.644531 251.375 137.464844 C 251.488281 137.417969 251.601562 137.367188 251.710938 137.3125 C 251.765625 137.285156 251.820312 137.257812 251.871094 137.226562 L 252.039062 137.128906 C 252.257812 136.996094 252.464844 136.851562 252.65625 136.691406 C 252.851562 136.53125 253.023438 136.359375 253.195312 136.164062 C 253.371094 135.96875 253.554688 135.75 253.765625 135.542969 C 253.976562 135.335938 254.203125 135.144531 254.441406 134.980469 C 254.6875 134.816406 254.898438 134.660156 255.222656 134.519531 C 255.378906 134.457031 255.507812 134.417969 255.640625 134.375 L 256.019531 134.25 C 256.273438 134.164062 256.527344 134.074219 256.78125 133.980469 C 257.285156 133.796875 257.789062 133.601562 258.292969 133.40625 C 258.800781 133.210938 259.300781 132.996094 259.859375 132.828125 C 260.136719 132.742188 260.429688 132.675781 260.730469 132.644531 C 261.023438 132.609375 261.316406 132.601562 261.613281 132.613281 C 262.199219 132.636719 262.789062 132.777344 263.308594 132.925781 L 264.882812 133.371094 C 265.929688 133.671875 266.980469 133.980469 268.023438 134.347656 C 268.546875 134.535156 269.066406 134.730469 269.585938 134.996094 C 269.847656 135.132812 270.109375 135.273438 270.375 135.53125 C 270.445312 135.601562 270.511719 135.675781 270.574219 135.78125 C 270.605469 135.828125 270.632812 135.898438 270.652344 135.957031 C 270.675781 136.027344 270.691406 136.105469 270.699219 136.183594 C 270.699219 136.261719 270.691406 136.347656 270.671875 136.417969 C 270.660156 136.457031 270.648438 136.496094 270.636719 136.527344 L 270.59375 136.609375 C 270.570312 136.664062 270.539062 136.714844 270.496094 136.765625 C 270.457031 136.820312 270.410156 136.863281 270.359375 136.90625 C 270.152344 137.078125 269.925781 137.132812 269.75 137.15625 C 269.5625 137.179688 269.410156 137.175781 269.253906 137.167969 C 268.953125 137.148438 268.679688 137.109375 268.40625 137.070312 C 267.867188 136.992188 267.339844 136.917969 266.816406 136.875 C 265.765625 136.785156 264.710938 136.824219 263.679688 137 C 262.648438 137.175781 261.625 137.46875 260.65625 137.875 C 260.175781 138.078125 259.6875 138.308594 259.21875 138.554688 C 258.742188 138.789062 258.292969 139.0625 257.859375 139.347656 C 257.425781 139.636719 257.027344 139.964844 256.632812 140.320312 C 256.238281 140.671875 255.832031 141.066406 255.367188 141.410156 C 254.90625 141.761719 254.394531 142.050781 253.878906 142.292969 C 253.613281 142.402344 253.351562 142.519531 253.09375 142.613281 C 252.832031 142.710938 252.582031 142.804688 252.34375 142.902344 C 251.867188 143.09375 251.453125 143.328125 251.222656 143.648438 C 251.105469 143.808594 251.039062 143.976562 251 144.195312 C 250.960938 144.402344 250.960938 144.601562 251.019531 144.746094 C 251.050781 144.820312 251.070312 144.871094 251.136719 144.9375 C 251.191406 145.007812 251.257812 145.0625 251.335938 145.113281 C 251.488281 145.214844 251.6875 145.277344 251.90625 145.3125 C 252.351562 145.375 252.855469 145.324219 253.351562 145.21875 C 253.851562 145.113281 254.347656 144.957031 254.839844 144.773438 C 255.34375 144.582031 255.847656 144.386719 256.347656 144.183594 C 257.34375 143.773438 258.324219 143.339844 259.28125 142.855469 C 259.761719 142.613281 260.230469 142.359375 260.699219 142.097656 L 261.417969 141.695312 C 261.476562 141.660156 261.542969 141.625 261.609375 141.59375 L 261.710938 141.539062 L 261.828125 141.488281 C 261.886719 141.457031 262.035156 141.414062 262.113281 141.394531 L 262.332031 141.359375 C 263.4375 141.1875 264.539062 141.09375 265.660156 141.09375 C 266.222656 141.09375 266.78125 141.117188 267.351562 141.195312 C 267.636719 141.234375 267.917969 141.277344 268.203125 141.351562 L 268.421875 141.402344 C 268.503906 141.425781 268.578125 141.453125 268.652344 141.480469 C 268.792969 141.53125 268.921875 141.585938 269.050781 141.640625 C 270.058594 142.066406 271.070312 142.554688 272.023438 143.121094 L 272.382812 143.339844 L 272.5625 143.453125 C 272.625 143.492188 272.691406 143.550781 272.753906 143.597656 L 272.949219 143.75 C 273.007812 143.804688 273.0625 143.871094 273.117188 143.929688 C 273.171875 143.992188 273.230469 144.050781 273.28125 144.113281 L 273.414062 144.316406 C 273.761719 144.867188 273.90625 145.449219 274.035156 145.988281 C 274.164062 146.53125 274.265625 147.058594 274.390625 147.574219 C 274.515625 148.089844 274.65625 148.601562 274.832031 149.097656 L 274.960938 149.46875 L 275.109375 149.832031 C 275.160156 149.957031 275.207031 150.078125 275.257812 150.199219 L 275.425781 150.554688 C 275.480469 150.675781 275.535156 150.796875 275.59375 150.914062 L 275.78125 151.261719 L 275.964844 151.609375 L 276.164062 151.972656 C 276.699219 152.933594 277.199219 153.929688 277.570312 154.996094 C 277.660156 155.261719 277.753906 155.527344 277.820312 155.804688 C 277.859375 155.941406 277.898438 156.078125 277.925781 156.21875 L 278.011719 156.636719 C 278.113281 157.195312 278.171875 157.761719 278.1875 158.316406 C 278.234375 159.433594 278.179688 160.515625 278.183594 161.59375 C 278.179688 162.667969 278.214844 163.753906 278.234375 164.84375 C 278.332031 169.191406 278.359375 173.542969 278.269531 177.894531 C 278.179688 182.242188 277.984375 186.59375 277.597656 190.933594 C 277.382812 193.101562 277.15625 195.265625 276.835938 197.421875 C 276.535156 199.578125 276.144531 201.722656 275.703125 203.855469 L 275.34375 205.449219 C 275.230469 205.980469 275.085938 206.507812 274.957031 207.035156 C 274.695312 208.09375 274.40625 209.140625 274.121094 210.191406 C 273.546875 212.289062 272.953125 214.378906 272.3125 216.457031 C 271.679688 218.539062 270.992188 220.601562 270.28125 222.65625 L 268.128906 228.808594 L 270.140625 222.605469 C 270.8125 220.542969 271.464844 218.472656 272.0625 216.382812 C 272.664062 214.296875 273.222656 212.199219 273.761719 210.09375 C 274.023438 209.042969 274.296875 207.992188 274.539062 206.933594 C 274.65625 206.40625 274.792969 205.882812 274.898438 205.347656 L 275.226562 203.757812 C 276.074219 199.507812 276.617188 195.199219 276.972656 190.878906 C 277.3125 186.558594 277.464844 182.21875 277.507812 177.882812 C 277.523438 176.796875 277.519531 175.710938 277.515625 174.628906 C 277.519531 173.542969 277.507812 172.457031 277.492188 171.375 C 277.484375 170.289062 277.464844 169.203125 277.441406 168.117188 C 277.425781 167.035156 277.398438 165.949219 277.367188 164.863281 C 277.339844 163.78125 277.300781 162.695312 277.296875 161.59375 C 277.289062 160.5 277.335938 159.410156 277.289062 158.355469 C 277.25 157.300781 277.054688 156.285156 276.703125 155.300781 C 276.355469 154.316406 275.867188 153.363281 275.34375 152.429688 L 275.148438 152.078125 L 274.949219 151.707031 L 274.75 151.339844 C 274.6875 151.214844 274.628906 151.085938 274.570312 150.960938 L 274.390625 150.578125 C 274.332031 150.453125 274.28125 150.320312 274.230469 150.191406 L 274.070312 149.800781 L 273.933594 149.40625 C 273.746094 148.875 273.597656 148.335938 273.464844 147.796875 C 273.332031 147.257812 273.226562 146.71875 273.105469 146.207031 C 272.984375 145.695312 272.84375 145.203125 272.605469 144.832031 L 272.515625 144.695312 C 272.484375 144.652344 272.445312 144.617188 272.410156 144.574219 C 272.371094 144.539062 272.339844 144.492188 272.300781 144.457031 L 272.171875 144.359375 C 272.125 144.328125 272.097656 144.292969 272.039062 144.257812 L 271.875 144.152344 L 271.535156 143.949219 C 270.617188 143.40625 269.664062 142.949219 268.671875 142.53125 C 268.550781 142.480469 268.425781 142.425781 268.316406 142.386719 C 268.257812 142.367188 268.203125 142.347656 268.15625 142.335938 L 267.976562 142.292969 C 267.734375 142.230469 267.480469 142.191406 267.226562 142.15625 C 266.714844 142.085938 266.1875 142.066406 265.660156 142.066406 C 264.605469 142.066406 263.53125 142.160156 262.488281 142.324219 L 262.304688 142.355469 C 262.253906 142.371094 262.269531 142.363281 262.207031 142.390625 L 262.136719 142.421875 L 262.058594 142.464844 C 262.003906 142.492188 261.949219 142.519531 261.886719 142.554688 L 261.183594 142.953125 C 260.707031 143.222656 260.21875 143.484375 259.726562 143.730469 C 258.742188 144.234375 257.738281 144.683594 256.722656 145.097656 C 256.210938 145.304688 255.699219 145.5 255.1875 145.695312 C 254.664062 145.890625 254.117188 146.066406 253.554688 146.179688 C 252.988281 146.296875 252.394531 146.371094 251.757812 146.28125 C 251.136719 146.191406 250.386719 145.847656 250.097656 145.074219 C 249.964844 144.703125 249.980469 144.339844 250.039062 144.015625 C 250.09375 143.699219 250.226562 143.347656 250.433594 143.074219 C 250.640625 142.792969 250.902344 142.574219 251.167969 142.40625 C 251.4375 142.238281 251.707031 142.113281 251.972656 142.003906 C 252.238281 141.894531 252.5 141.800781 252.75 141.707031 C 253 141.617188 253.234375 141.511719 253.472656 141.410156 C 253.941406 141.195312 254.382812 140.945312 254.785156 140.640625 C 255.195312 140.335938 255.574219 139.976562 255.988281 139.601562 C 256.40625 139.234375 256.847656 138.867188 257.320312 138.554688 C 257.792969 138.242188 258.277344 137.949219 258.777344 137.703125 C 259.273438 137.445312 259.769531 137.214844 260.289062 136.996094 C 261.328125 136.558594 262.410156 136.25 263.523438 136.0625 C 264.636719 135.875 265.777344 135.84375 266.894531 135.945312 C 267.453125 135.992188 268.003906 136.074219 268.539062 136.15625 C 268.804688 136.191406 269.070312 136.230469 269.308594 136.246094 C 269.425781 136.253906 269.546875 136.257812 269.628906 136.246094 C 269.71875 136.234375 269.765625 136.210938 269.769531 136.207031 C 269.773438 136.207031 269.773438 136.203125 269.773438 136.199219 C 269.777344 136.199219 269.777344 136.195312 269.78125 136.1875 C 269.785156 136.183594 269.785156 136.179688 269.789062 136.175781 C 269.789062 136.175781 269.78125 136.183594 269.78125 136.1875 C 269.785156 136.195312 269.777344 136.210938 269.78125 136.222656 C 269.792969 136.28125 269.785156 136.230469 269.726562 136.171875 C 269.605469 136.050781 269.386719 135.914062 269.167969 135.800781 C 268.71875 135.570312 268.222656 135.375 267.722656 135.195312 C 266.714844 134.832031 265.675781 134.523438 264.636719 134.21875 L 263.070312 133.769531 C 262.546875 133.613281 262.074219 133.5 261.570312 133.476562 C 261.324219 133.464844 261.070312 133.472656 260.828125 133.496094 C 260.582031 133.527344 260.34375 133.574219 260.101562 133.648438 C 259.617188 133.789062 259.109375 134 258.601562 134.195312 C 258.09375 134.390625 257.582031 134.582031 257.066406 134.769531 C 256.804688 134.863281 256.546875 134.953125 256.285156 135.039062 L 255.890625 135.164062 C 255.757812 135.207031 255.628906 135.246094 255.53125 135.28125 C 255.355469 135.351562 255.117188 135.511719 254.910156 135.648438 C 254.703125 135.792969 254.511719 135.949219 254.332031 136.121094 C 254.148438 136.292969 253.980469 136.492188 253.789062 136.699219 C 253.601562 136.90625 253.390625 137.117188 253.160156 137.300781 C 252.929688 137.488281 252.691406 137.652344 252.445312 137.796875 L 252.257812 137.90625 C 252.191406 137.941406 252.125 137.976562 252.058594 138.011719 C 251.925781 138.078125 251.789062 138.132812 251.648438 138.1875 C 251.097656 138.394531 250.511719 138.507812 249.914062 138.5 C 249.316406 138.5 248.71875 138.351562 248.183594 138.09375 L 247.980469 137.996094 L 247.789062 137.878906 C 247.726562 137.839844 247.664062 137.800781 247.601562 137.761719 L 247.425781 137.628906 L 247.25 137.492188 C 247.183594 137.425781 247.109375 137.367188 247.054688 137.285156 C 246.929688 137.132812 246.863281 136.945312 246.824219 136.765625 C 246.761719 136.398438 246.835938 136.070312 246.925781 135.785156 C 246.972656 135.640625 247.035156 135.496094 247.089844 135.375 L 247.125 135.289062 C 247.140625 135.25 247.15625 135.214844 247.175781 135.175781 C 247.210938 135.101562 247.25 135.027344 247.296875 134.957031 C 247.488281 134.671875 247.714844 134.480469 247.921875 134.296875 L 248.546875 133.769531 C 248.960938 133.421875 249.375 133.066406 249.769531 132.707031 C 249.964844 132.527344 250.160156 132.34375 250.328125 132.15625 C 250.410156 132.070312 250.496094 131.964844 250.519531 131.910156 C 250.523438 131.910156 250.527344 131.902344 250.527344 131.902344 C 250.519531 131.914062 250.523438 131.910156 250.519531 131.929688 C 250.519531 131.957031 250.519531 131.976562 250.535156 132.019531 C 250.5 132.023438 250.71875 132.238281 250.707031 132.1875 L 250.566406 132.167969 C 250.285156 132.128906 249.976562 132.074219 249.675781 131.921875 C 249.527344 131.847656 249.378906 131.742188 249.257812 131.601562 C 249.136719 131.464844 249.046875 131.289062 249.003906 131.113281 C 248.917969 130.761719 248.960938 130.441406 249.0625 130.128906 C 249.175781 129.816406 249.363281 129.558594 249.558594 129.339844 C 249.949219 128.902344 250.390625 128.570312 250.796875 128.214844 C 251.210938 127.867188 251.617188 127.511719 252.015625 127.148438 L 253.226562 126.054688 C 253.636719 125.6875 254.074219 125.328125 254.550781 125.023438 C 254.785156 124.875 255.03125 124.734375 255.28125 124.609375 L 255.648438 124.425781 C 255.777344 124.363281 255.90625 124.304688 256.039062 124.25 C 256.566406 124.039062 257.113281 123.902344 257.664062 123.804688 C 258.21875 123.710938 258.753906 123.664062 259.285156 123.582031 C 259.820312 123.5 260.351562 123.40625 260.878906 123.300781 C 261.945312 123.097656 262.996094 122.839844 264.074219 122.632812 C 264.617188 122.535156 265.164062 122.445312 265.730469 122.441406 C 266.011719 122.4375 266.300781 122.457031 266.582031 122.515625 C 266.722656 122.550781 266.867188 122.570312 267 122.628906 C 267.136719 122.679688 267.273438 122.726562 267.394531 122.789062 C 269.371094 123.707031 271.328125 124.652344 273.289062 125.597656 C 275.246094 126.546875 277.199219 127.5 279.144531 128.480469 C 279.628906 128.726562 280.113281 128.972656 280.59375 129.230469 C 280.835938 129.355469 281.074219 129.492188 281.3125 129.621094 C 281.550781 129.761719 281.769531 129.929688 281.960938 130.125 C 282.753906 130.898438 283.203125 131.941406 283.441406 132.992188 " fill-opacity="1" fill-rule="nonzero"/><path fill="#f3f5f9" d="M 298.019531 233.324219 C 298.777344 223.113281 298.796875 210.144531 297.167969 198.324219 C 293.859375 174.285156 294.40625 178.15625 293.007812 170.9375 C 292.398438 167.792969 291.964844 163.660156 291.242188 159.820312 C 290.796875 157.46875 288.78125 149.101562 288.472656 148.273438 " fill-opacity="1" fill-rule="nonzero"/><path fill="#041734" d="M 298.019531 233.324219 C 298.292969 226.167969 298.273438 219.011719 297.890625 211.878906 C 297.679688 208.316406 297.398438 204.757812 296.964844 201.21875 C 296.863281 200.335938 296.734375 199.453125 296.621094 198.570312 L 296.25 195.910156 L 295.503906 190.59375 L 294.046875 179.960938 C 293.800781 178.1875 293.542969 176.429688 293.210938 174.679688 C 292.886719 172.925781 292.527344 171.171875 292.261719 169.382812 C 291.996094 167.601562 291.773438 165.824219 291.542969 164.050781 C 291.308594 162.28125 291.066406 160.511719 290.726562 158.765625 C 290.390625 157.011719 290.011719 155.261719 289.644531 153.511719 L 289.078125 150.886719 L 288.789062 149.574219 C 288.691406 149.140625 288.597656 148.703125 288.472656 148.273438 C 289.039062 149.972656 289.492188 151.707031 289.964844 153.433594 C 290.429688 155.164062 290.875 156.898438 291.296875 158.644531 C 292.113281 162.15625 292.5625 165.722656 293.175781 169.230469 C 293.328125 170.109375 293.507812 170.972656 293.691406 171.851562 L 294.234375 174.480469 C 294.59375 176.246094 294.886719 178.027344 295.160156 179.796875 C 295.691406 183.339844 296.179688 186.886719 296.683594 190.433594 L 297.402344 195.753906 C 297.640625 197.523438 297.890625 199.304688 298.078125 201.09375 C 298.453125 204.667969 298.710938 208.253906 298.8125 211.839844 C 299.023438 219.015625 298.785156 226.203125 298.019531 233.324219 " fill-opacity="1" fill-rule="nonzero"/><path fill="#041734" d="M 274.398438 130.988281 C 272.574219 129.988281 270.710938 129.085938 268.824219 128.222656 C 267.886719 127.78125 266.933594 127.378906 265.976562 126.972656 C 265.488281 126.769531 265.019531 126.578125 264.480469 126.410156 C 263.941406 126.25 263.363281 126.167969 262.785156 126.191406 C 262.511719 126.199219 262.160156 126.269531 261.910156 126.347656 C 261.648438 126.425781 261.398438 126.507812 261.148438 126.59375 C 260.652344 126.773438 260.164062 126.949219 259.679688 127.140625 C 258.71875 127.53125 257.757812 127.917969 256.808594 128.324219 L 255.382812 128.914062 C 254.84375 129.140625 254.414062 129.46875 254.003906 129.804688 C 253.203125 130.492188 252.5 131.226562 251.664062 131.851562 C 252.617188 131.421875 253.449219 130.753906 254.300781 130.199219 C 254.726562 129.921875 255.160156 129.664062 255.601562 129.539062 C 256.105469 129.394531 256.59375 129.222656 257.089844 129.0625 C 258.074219 128.738281 259.042969 128.371094 260.015625 128.035156 C 260.503906 127.863281 260.984375 127.6875 261.464844 127.527344 C 261.707031 127.449219 261.949219 127.371094 262.183594 127.304688 C 262.429688 127.238281 262.585938 127.207031 262.832031 127.199219 C 263.289062 127.171875 263.753906 127.230469 264.207031 127.355469 C 264.65625 127.480469 265.148438 127.683594 265.628906 127.855469 L 268.523438 128.945312 C 270.464844 129.667969 272.410156 130.375 274.398438 130.988281 " fill-opacity="1" fill-rule="nonzero"/><path fill="#f3f5f9" d="M 178.585938 238.882812 C 176.875 236.554688 174.808594 234.191406 172.335938 231.804688 C 162.902344 222.714844 159.101562 208.269531 155.65625 200.78125 C 155.394531 200.214844 154.488281 197.664062 154.117188 196.210938 C 153.480469 193.726562 152.378906 190.023438 151.097656 188.21875 C 149.070312 185.355469 147.660156 183.417969 143.84375 180.671875 C 140.027344 177.925781 134.632812 172.757812 133.214844 171.757812 C 131.453125 170.511719 130.203125 170.117188 129.058594 170.914062 C 127.914062 171.710938 128.164062 173.070312 128.890625 174.203125 C 129.613281 175.335938 131.574219 177.480469 132.859375 178.738281 C 134.976562 180.808594 138.621094 183.503906 137.65625 183.164062 C 137.535156 183.121094 136.488281 182.582031 134.742188 181.851562 C 133.621094 181.378906 127.519531 178.660156 127.519531 178.660156 C 127.519531 178.660156 127.921875 177.410156 127.800781 176.359375 C 127.679688 175.324219 126.871094 174.460938 126.214844 174.414062 C 125.558594 174.367188 124.953125 174.589844 124.210938 175.765625 C 123.472656 176.941406 122.347656 178.949219 122.347656 178.949219 C 122.347656 178.949219 121.671875 175.585938 121.261719 172.835938 C 120.855469 170.085938 120.316406 168.886719 119.394531 168.199219 C 118.59375 167.601562 117.164062 167.402344 116.996094 168.261719 C 116.832031 169.121094 116.816406 173.316406 116.816406 173.316406 C 116.816406 173.316406 113.457031 170.304688 112.34375 169.285156 C 110.90625 167.972656 108.988281 167.667969 108.296875 168.1875 C 107.601562 168.707031 107.523438 169.582031 108.050781 170.230469 C 108.582031 170.878906 113.082031 175.96875 113.964844 176.933594 C 114.84375 177.894531 120.625 184.148438 120.625 184.148438 C 120.625 184.148438 120.292969 185.066406 120.339844 186.183594 C 120.398438 187.578125 121.488281 188.808594 122.308594 189.585938 C 123.257812 190.488281 124.132812 191.167969 124.140625 191.347656 C 124.289062 194.113281 126.84375 195.089844 127.097656 195.246094 C 127.382812 195.417969 127.5 197.160156 135.515625 202.582031 C 136.609375 203.320312 138.953125 204.582031 140.578125 205.722656 C 141.621094 206.449219 142.160156 207.238281 142.476562 207.894531 C 142.691406 208.339844 146.921875 219.21875 148.226562 223.140625 C 151.199219 232.046875 154.351562 244.632812 158.449219 255.738281 C 160.199219 257.273438 163.199219 257.160156 166.75 255.398438 C 172.933594 252.332031 178.945312 245.230469 178.53125 239.226562 C 178.523438 239.105469 178.546875 238.988281 178.585938 238.882812 " fill-opacity="1" fill-rule="nonzero"/><path fill="#041734" d="M 166.550781 255.398438 C 167.757812 254.730469 168.890625 253.941406 169.953125 253.078125 C 171.019531 252.21875 172 251.257812 172.902344 250.230469 C 173.363281 249.726562 173.78125 249.1875 174.203125 248.652344 L 174.796875 247.820312 C 174.996094 247.546875 175.167969 247.25 175.351562 246.964844 C 176.0625 245.8125 176.691406 244.605469 177.15625 243.34375 L 177.472656 242.382812 C 177.5625 242.0625 177.632812 241.734375 177.714844 241.410156 C 177.761719 241.25 177.773438 241.085938 177.804688 240.917969 L 177.882812 240.429688 C 177.910156 240.269531 177.933594 240.089844 177.941406 239.941406 C 177.953125 239.792969 177.949219 239.648438 177.933594 239.503906 C 177.902344 239.21875 177.8125 238.949219 177.667969 238.699219 C 177.597656 238.574219 177.511719 238.464844 177.40625 238.320312 L 177.09375 237.914062 C 176.679688 237.378906 176.246094 236.851562 175.796875 236.335938 C 174.90625 235.308594 173.972656 234.308594 173.003906 233.339844 C 172.519531 232.851562 172.027344 232.390625 171.53125 231.898438 C 171.285156 231.648438 171.03125 231.410156 170.792969 231.152344 L 170.074219 230.386719 C 168.21875 228.300781 166.582031 226.03125 165.152344 223.644531 C 163.734375 221.253906 162.476562 218.777344 161.375 216.238281 C 160.257812 213.707031 159.273438 211.125 158.324219 208.535156 C 157.382812 205.945312 156.496094 203.339844 155.457031 200.78125 C 156.699219 203.25 157.714844 205.820312 158.78125 208.359375 C 159.835938 210.902344 160.914062 213.433594 162.082031 215.917969 C 163.261719 218.394531 164.519531 220.832031 165.960938 223.15625 C 167.386719 225.484375 168.996094 227.699219 170.816406 229.722656 L 171.507812 230.46875 C 171.742188 230.71875 171.984375 230.953125 172.222656 231.195312 C 172.703125 231.675781 173.210938 232.164062 173.695312 232.65625 C 174.667969 233.644531 175.621094 234.660156 176.515625 235.726562 C 176.964844 236.261719 177.398438 236.808594 177.816406 237.367188 L 178.128906 237.789062 C 178.222656 237.921875 178.347656 238.085938 178.441406 238.265625 C 178.640625 238.613281 178.761719 239.015625 178.800781 239.414062 C 178.820312 239.613281 178.820312 239.816406 178.804688 240.007812 C 178.789062 240.207031 178.761719 240.367188 178.730469 240.546875 L 178.636719 241.074219 C 178.601562 241.246094 178.582031 241.425781 178.527344 241.59375 C 178.433594 241.9375 178.34375 242.28125 178.242188 242.621094 L 177.882812 243.617188 C 177.355469 244.921875 176.679688 246.160156 175.898438 247.320312 C 175.121094 248.480469 174.230469 249.5625 173.261719 250.5625 C 172.289062 251.558594 171.253906 252.488281 170.121094 253.296875 C 169 254.109375 167.804688 254.824219 166.550781 255.398438 " fill-opacity="1" fill-rule="nonzero"/><path fill="#041734" d="M 153.808594 196.210938 C 153.457031 194.898438 153.066406 193.597656 152.617188 192.320312 C 152.160156 191.046875 151.660156 189.777344 150.957031 188.628906 C 150.773438 188.347656 150.574219 188.074219 150.375 187.800781 L 149.773438 186.980469 C 149.367188 186.4375 148.953125 185.902344 148.519531 185.382812 C 147.652344 184.347656 146.695312 183.390625 145.65625 182.527344 C 145.144531 182.089844 144.605469 181.679688 144.0625 181.277344 C 143.519531 180.878906 142.960938 180.484375 142.414062 180.074219 C 141.328125 179.25 140.273438 178.390625 139.230469 177.515625 C 138.1875 176.640625 137.160156 175.753906 136.136719 174.855469 C 135.113281 173.96875 134.101562 173.054688 133.054688 172.214844 C 132.796875 172.019531 132.523438 171.824219 132.242188 171.648438 C 131.964844 171.472656 131.679688 171.304688 131.386719 171.164062 C 130.804688 170.886719 130.179688 170.707031 129.613281 170.847656 C 129.332031 170.910156 129.058594 171.054688 128.828125 171.238281 C 128.601562 171.421875 128.429688 171.648438 128.347656 171.910156 C 128.179688 172.445312 128.335938 173.082031 128.625 173.636719 C 128.910156 174.191406 129.34375 174.714844 129.765625 175.230469 C 130.195312 175.746094 130.644531 176.246094 131.101562 176.742188 C 132.023438 177.734375 132.964844 178.6875 133.984375 179.570312 C 135 180.460938 136.050781 181.304688 137.09375 182.199219 C 137.222656 182.3125 137.355469 182.425781 137.484375 182.546875 C 137.550781 182.609375 137.617188 182.671875 137.683594 182.75 C 137.71875 182.785156 137.753906 182.824219 137.800781 182.894531 C 137.8125 182.90625 137.828125 182.9375 137.839844 182.960938 C 137.847656 182.96875 137.859375 183 137.867188 183.023438 C 137.875 183.039062 137.886719 183.070312 137.890625 183.136719 C 137.894531 183.171875 137.898438 183.253906 137.84375 183.363281 C 137.796875 183.453125 137.722656 183.507812 137.636719 183.546875 C 137.59375 183.566406 137.550781 183.574219 137.503906 183.578125 C 137.476562 183.582031 137.460938 183.578125 137.4375 183.578125 C 137.292969 183.5625 137.269531 183.542969 137.199219 183.523438 C 137.160156 183.507812 137.136719 183.496094 137.117188 183.488281 L 137.054688 183.457031 L 136.824219 183.347656 L 136.363281 183.136719 C 135.75 182.851562 135.132812 182.582031 134.511719 182.320312 C 132.015625 181.246094 129.527344 180.148438 127.035156 179.054688 L 126.6875 178.902344 L 126.796875 178.527344 C 126.917969 178.121094 127.011719 177.667969 127.050781 177.242188 C 127.09375 176.804688 127.089844 176.382812 126.96875 176.027344 C 126.847656 175.660156 126.617188 175.3125 126.332031 175.082031 C 126.195312 174.96875 126.035156 174.878906 125.914062 174.867188 L 125.871094 174.859375 L 125.800781 174.855469 C 125.753906 174.855469 125.710938 174.855469 125.667969 174.859375 C 125.582031 174.863281 125.5 174.878906 125.421875 174.902344 C 125.117188 174.992188 124.820312 175.261719 124.566406 175.601562 C 124.316406 175.9375 124.078125 176.351562 123.839844 176.746094 C 123.363281 177.546875 122.898438 178.359375 122.445312 179.175781 L 121.832031 180.269531 L 121.585938 179.039062 C 121.269531 177.46875 120.972656 175.898438 120.707031 174.3125 C 120.570312 173.523438 120.464844 172.722656 120.324219 171.960938 C 120.175781 171.195312 120 170.433594 119.699219 169.769531 C 119.550781 169.441406 119.371094 169.140625 119.140625 168.894531 C 119.03125 168.769531 118.898438 168.660156 118.765625 168.566406 C 118.640625 168.472656 118.492188 168.394531 118.339844 168.332031 C 118.183594 168.265625 118.023438 168.222656 117.867188 168.195312 C 117.707031 168.164062 117.550781 168.160156 117.425781 168.179688 C 117.296875 168.199219 117.226562 168.246094 117.203125 168.273438 C 117.191406 168.289062 117.179688 168.308594 117.171875 168.34375 C 117.167969 168.347656 117.164062 168.367188 117.160156 168.386719 L 117.152344 168.449219 C 117.148438 168.488281 117.140625 168.53125 117.136719 168.578125 C 117.066406 169.332031 117.050781 170.140625 117.03125 170.929688 C 117.011719 171.726562 117.003906 172.523438 117 173.316406 L 116.992188 174.410156 L 116.183594 173.679688 L 113.25 171.042969 L 111.78125 169.722656 C 111.65625 169.609375 111.550781 169.523438 111.433594 169.425781 C 111.3125 169.339844 111.195312 169.242188 111.070312 169.167969 C 110.820312 169 110.554688 168.863281 110.28125 168.75 C 110.007812 168.636719 109.722656 168.546875 109.4375 168.496094 C 109.15625 168.445312 108.871094 168.429688 108.625 168.46875 C 108.5625 168.472656 108.515625 168.496094 108.457031 168.503906 L 108.390625 168.53125 C 108.367188 168.539062 108.34375 168.550781 108.332031 168.5625 C 108.316406 168.574219 108.300781 168.578125 108.28125 168.589844 L 108.214844 168.644531 C 108.175781 168.6875 108.132812 168.722656 108.101562 168.765625 C 107.957031 168.933594 107.890625 169.136719 107.902344 169.339844 C 107.910156 169.550781 107.988281 169.75 108.152344 169.945312 L 108.804688 170.679688 L 110.101562 172.15625 L 112.695312 175.105469 L 113.996094 176.578125 L 115.328125 178.027344 L 120.671875 183.820312 L 120.863281 184.03125 L 120.769531 184.3125 C 120.714844 184.472656 120.660156 184.683594 120.621094 184.878906 C 120.578125 185.078125 120.550781 185.277344 120.53125 185.480469 C 120.511719 185.683594 120.503906 185.882812 120.507812 186.082031 C 120.507812 186.1875 120.523438 186.269531 120.527344 186.363281 C 120.542969 186.453125 120.554688 186.546875 120.578125 186.636719 C 120.75 187.371094 121.21875 188.066406 121.777344 188.683594 C 122.054688 188.996094 122.359375 189.285156 122.679688 189.582031 L 123.660156 190.464844 C 123.742188 190.539062 123.828125 190.617188 123.914062 190.703125 C 123.957031 190.746094 123.996094 190.785156 124.042969 190.839844 C 124.066406 190.867188 124.089844 190.886719 124.117188 190.921875 C 124.144531 190.957031 124.164062 190.976562 124.203125 191.042969 L 124.226562 191.085938 C 124.234375 191.097656 124.242188 191.109375 124.257812 191.152344 C 124.269531 191.1875 124.28125 191.222656 124.285156 191.261719 C 124.292969 191.300781 124.296875 191.335938 124.296875 191.328125 L 124.320312 191.550781 C 124.335938 191.644531 124.332031 191.746094 124.359375 191.839844 C 124.429688 192.226562 124.570312 192.589844 124.753906 192.933594 C 125.136719 193.613281 125.753906 194.160156 126.464844 194.566406 C 126.554688 194.617188 126.640625 194.667969 126.734375 194.714844 L 126.878906 194.785156 L 126.96875 194.832031 L 127.023438 194.859375 C 127.050781 194.882812 127.089844 194.910156 127.121094 194.941406 C 127.152344 194.964844 127.191406 195.011719 127.203125 195.027344 L 127.238281 195.078125 C 127.257812 195.105469 127.289062 195.152344 127.300781 195.171875 L 127.382812 195.3125 C 127.4375 195.402344 127.492188 195.488281 127.550781 195.570312 C 127.78125 195.910156 128.050781 196.234375 128.335938 196.546875 C 129.5 197.796875 130.871094 198.894531 132.253906 199.953125 C 132.601562 200.214844 132.953125 200.476562 133.308594 200.730469 C 133.664062 200.988281 134.011719 201.246094 134.375 201.492188 L 135.453125 202.242188 C 135.804688 202.480469 136.175781 202.707031 136.550781 202.933594 C 137.300781 203.390625 138.058594 203.835938 138.8125 204.304688 C 139.1875 204.535156 139.5625 204.773438 139.933594 205.023438 C 140.121094 205.144531 140.304688 205.273438 140.488281 205.402344 C 140.675781 205.535156 140.859375 205.675781 141.035156 205.828125 C 141.742188 206.433594 142.328125 207.222656 142.652344 208.101562 C 142.976562 208.921875 143.292969 209.742188 143.605469 210.5625 C 144.238281 212.207031 144.859375 213.851562 145.472656 215.496094 C 146.089844 217.144531 146.699219 218.796875 147.292969 220.453125 C 147.585938 221.28125 147.878906 222.113281 148.15625 222.949219 C 148.429688 223.789062 148.703125 224.625 148.960938 225.464844 C 150.007812 228.828125 150.960938 232.210938 151.925781 235.59375 C 153.84375 242.355469 155.800781 249.105469 158.140625 255.738281 C 155.632812 249.167969 153.582031 242.429688 151.542969 235.703125 C 150.519531 232.339844 149.511719 228.972656 148.4375 225.632812 C 148.171875 224.796875 147.890625 223.960938 147.613281 223.132812 C 147.328125 222.304688 147.027344 221.480469 146.726562 220.65625 C 146.117188 219.011719 145.492188 217.371094 144.859375 215.730469 C 144.226562 214.089844 143.589844 212.453125 142.945312 210.820312 C 142.621094 210.003906 142.296875 209.1875 141.96875 208.378906 C 141.671875 207.605469 141.167969 206.945312 140.535156 206.410156 C 140.378906 206.277344 140.214844 206.152344 140.042969 206.035156 C 139.863281 205.910156 139.6875 205.789062 139.503906 205.671875 C 139.140625 205.433594 138.769531 205.203125 138.398438 204.976562 C 137.648438 204.527344 136.890625 204.089844 136.128906 203.636719 C 135.746094 203.410156 135.367188 203.183594 134.988281 202.933594 L 133.890625 202.183594 C 133.527344 201.941406 133.167969 201.675781 132.808594 201.421875 C 132.445312 201.167969 132.089844 200.902344 131.738281 200.636719 C 130.324219 199.570312 128.929688 198.464844 127.683594 197.144531 C 127.375 196.8125 127.078125 196.460938 126.8125 196.074219 C 126.742188 195.976562 126.679688 195.878906 126.621094 195.777344 L 126.535156 195.640625 C 126.519531 195.613281 126.515625 195.609375 126.503906 195.59375 L 126.492188 195.574219 C 126.488281 195.570312 126.507812 195.597656 126.519531 195.605469 C 126.527344 195.617188 126.546875 195.625 126.558594 195.628906 L 126.480469 195.589844 L 126.328125 195.515625 C 126.226562 195.464844 126.121094 195.40625 126.019531 195.351562 C 125.203125 194.890625 124.445312 194.242188 123.960938 193.382812 C 123.722656 192.957031 123.542969 192.492188 123.453125 192.011719 C 123.421875 191.894531 123.417969 191.773438 123.402344 191.652344 L 123.382812 191.472656 L 123.371094 191.378906 C 123.371094 191.363281 123.367188 191.382812 123.371094 191.410156 C 123.375 191.433594 123.382812 191.457031 123.390625 191.476562 C 123.402344 191.503906 123.40625 191.507812 123.402344 191.507812 L 123.40625 191.515625 C 123.417969 191.53125 123.402344 191.511719 123.394531 191.503906 C 123.390625 191.496094 123.371094 191.476562 123.359375 191.460938 C 123.332031 191.433594 123.292969 191.394531 123.261719 191.363281 C 123.1875 191.292969 123.113281 191.222656 123.03125 191.148438 C 122.390625 190.570312 121.703125 190 121.074219 189.316406 C 120.765625 188.976562 120.472656 188.605469 120.222656 188.199219 C 119.96875 187.796875 119.765625 187.34375 119.644531 186.855469 C 119.617188 186.734375 119.597656 186.605469 119.578125 186.480469 C 119.566406 186.355469 119.550781 186.222656 119.550781 186.105469 C 119.542969 185.863281 119.550781 185.625 119.574219 185.390625 C 119.597656 185.15625 119.632812 184.921875 119.679688 184.6875 C 119.726562 184.453125 119.78125 184.238281 119.867188 183.984375 L 119.964844 184.472656 L 114.609375 178.683594 L 113.273438 177.238281 L 109.347656 172.792969 L 108.039062 171.3125 L 107.382812 170.570312 C 107.261719 170.425781 107.132812 170.230469 107.050781 170.03125 C 106.964844 169.828125 106.914062 169.609375 106.90625 169.382812 C 106.882812 168.933594 107.042969 168.472656 107.328125 168.136719 C 107.394531 168.050781 107.472656 167.976562 107.550781 167.902344 L 107.675781 167.800781 C 107.722656 167.765625 107.78125 167.730469 107.832031 167.699219 C 107.886719 167.664062 107.941406 167.636719 107.996094 167.617188 C 108.046875 167.597656 108.101562 167.574219 108.15625 167.554688 C 108.261719 167.53125 108.367188 167.496094 108.46875 167.484375 C 108.875 167.421875 109.253906 167.453125 109.617188 167.519531 C 109.980469 167.585938 110.328125 167.695312 110.660156 167.832031 C 110.992188 167.972656 111.3125 168.140625 111.609375 168.335938 C 111.765625 168.429688 111.90625 168.542969 112.046875 168.648438 C 112.183594 168.761719 112.332031 168.886719 112.449219 168.996094 L 113.910156 170.3125 L 116.835938 172.949219 L 116.019531 173.3125 C 116.023438 172.511719 116.035156 171.710938 116.054688 170.910156 C 116.078125 170.101562 116.09375 169.3125 116.171875 168.476562 C 116.175781 168.421875 116.183594 168.367188 116.191406 168.308594 L 116.207031 168.21875 C 116.210938 168.191406 116.214844 168.164062 116.226562 168.117188 C 116.253906 168.039062 116.269531 167.957031 116.3125 167.878906 C 116.355469 167.804688 116.394531 167.722656 116.457031 167.65625 C 116.691406 167.375 117.015625 167.261719 117.277344 167.222656 C 117.550781 167.179688 117.796875 167.199219 118.03125 167.242188 C 118.265625 167.285156 118.492188 167.347656 118.707031 167.4375 C 119.601562 167.792969 120.234375 168.582031 120.578125 169.375 C 121.265625 170.96875 121.375 172.609375 121.648438 174.160156 C 121.902344 175.726562 122.191406 177.296875 122.496094 178.859375 L 121.636719 178.722656 C 122.101562 177.902344 122.570312 177.089844 123.054688 176.277344 C 123.304688 175.875 123.53125 175.472656 123.847656 175.054688 C 124.003906 174.851562 124.179688 174.652344 124.394531 174.46875 C 124.605469 174.289062 124.871094 174.132812 125.164062 174.042969 C 125.3125 174 125.464844 173.972656 125.613281 173.964844 C 125.6875 173.960938 125.761719 173.960938 125.832031 173.964844 L 125.9375 173.96875 L 126.066406 173.988281 C 126.414062 174.046875 126.671875 174.214844 126.894531 174.394531 C 127.335938 174.757812 127.632812 175.230469 127.804688 175.753906 C 127.890625 176.015625 127.9375 176.300781 127.945312 176.558594 C 127.960938 176.820312 127.945312 177.074219 127.921875 177.324219 C 127.867188 177.828125 127.773438 178.300781 127.625 178.792969 L 127.386719 178.265625 L 134.828125 181.578125 C 135.457031 181.851562 136.078125 182.132812 136.699219 182.425781 L 137.160156 182.644531 L 137.386719 182.753906 L 137.472656 182.796875 C 137.484375 182.804688 137.539062 182.8125 137.484375 182.804688 C 137.46875 182.804688 137.464844 182.804688 137.445312 182.804688 C 137.410156 182.808594 137.378906 182.816406 137.34375 182.832031 C 137.265625 182.863281 137.207031 182.917969 137.160156 182.996094 C 137.113281 183.09375 137.117188 183.164062 137.117188 183.191406 C 137.125 183.246094 137.132812 183.265625 137.136719 183.273438 C 137.136719 183.285156 137.148438 183.308594 137.148438 183.304688 C 137.152344 183.3125 137.160156 183.324219 137.15625 183.320312 C 137.15625 183.316406 137.132812 183.289062 137.113281 183.265625 C 137.066406 183.214844 137.011719 183.160156 136.953125 183.105469 C 136.839844 182.996094 136.714844 182.882812 136.589844 182.773438 C 135.578125 181.886719 134.519531 181.019531 133.503906 180.109375 C 132.996094 179.65625 132.488281 179.183594 132.007812 178.695312 C 131.527344 178.207031 131.058594 177.707031 130.601562 177.203125 C 130.140625 176.695312 129.691406 176.179688 129.257812 175.648438 C 129.039062 175.382812 128.828125 175.109375 128.621094 174.832031 C 128.417969 174.550781 128.214844 174.25 128.054688 173.921875 C 127.890625 173.597656 127.761719 173.25 127.695312 172.878906 C 127.632812 172.507812 127.636719 172.101562 127.761719 171.71875 C 127.886719 171.335938 128.144531 171 128.449219 170.765625 C 128.75 170.527344 129.097656 170.351562 129.480469 170.265625 C 129.859375 170.179688 130.253906 170.195312 130.617188 170.277344 C 130.980469 170.355469 131.316406 170.492188 131.636719 170.648438 C 131.957031 170.804688 132.257812 170.984375 132.550781 171.175781 C 132.839844 171.363281 133.121094 171.5625 133.402344 171.78125 C 134.464844 172.65625 135.460938 173.570312 136.476562 174.472656 C 137.492188 175.375 138.5 176.285156 139.527344 177.171875 C 140.550781 178.058594 141.585938 178.933594 142.648438 179.769531 C 143.179688 180.1875 143.726562 180.585938 144.273438 180.996094 C 144.8125 181.414062 145.347656 181.835938 145.863281 182.289062 C 146.898438 183.179688 147.851562 184.167969 148.710938 185.226562 C 149.140625 185.757812 149.546875 186.304688 149.941406 186.855469 L 150.53125 187.6875 C 150.726562 187.964844 150.921875 188.242188 151.105469 188.535156 C 151.808594 189.71875 152.273438 191.003906 152.703125 192.289062 C 153.125 193.582031 153.488281 194.894531 153.808594 196.210938 " fill-opacity="1" fill-rule="nonzero"/><path fill="#041734" d="M 199.359375 280.425781 L 60.417969 280.425781 L 60.417969 273.984375 L 194.339844 273.984375 C 195.277344 273.984375 198.546875 278.304688 198.546875 278.304688 C 199.269531 279.140625 198.648438 280.410156 197.441406 280.425781 C 197.433594 280.425781 199.371094 280.425781 199.359375 280.425781 " fill-opacity="1" fill-rule="nonzero"/><path fill="#041734" d="M 123.558594 280.425781 L 40.257812 280.425781 C 35.792969 280.425781 31.875 277.460938 30.667969 273.171875 L 5.699219 184.542969 C 4.871094 181.597656 7.089844 178.671875 10.152344 178.671875 L 94.652344 178.671875 C 99.15625 178.671875 103.105469 181.664062 104.324219 185.988281 L 128.933594 273.34375 C 129.933594 276.898438 127.257812 280.425781 123.558594 280.425781 " fill-opacity="1" fill-rule="nonzero"/><path fill="#98d0f0" d="M 123.214844 280.425781 L 39.558594 280.425781 C 35.148438 280.425781 31.273438 277.496094 30.078125 273.253906 L 5.265625 185.167969 C 4.679688 183.089844 6.242188 181.023438 8.410156 181.023438 L 92.066406 181.023438 C 96.476562 181.023438 100.351562 183.953125 101.546875 188.195312 L 126.359375 276.28125 C 126.945312 278.363281 125.382812 280.425781 123.214844 280.425781 " fill-opacity="1" fill-rule="nonzero"/><path fill="#f3f5f9" d="M 12.125 293.207031 L 366.234375 293.207031 C 369.738281 293.207031 372.574219 290.375 372.574219 286.878906 C 372.574219 283.382812 369.738281 280.550781 366.234375 280.550781 L 12.125 280.550781 C 8.625 280.550781 5.785156 283.382812 5.785156 286.878906 C 5.785156 290.375 8.625 293.207031 12.125 293.207031 " fill-opacity="1" fill-rule="nonzero"/><g clip-path="url(#956a1ebc77)"><path fill="#041734" d="M 12.125 281.339844 C 9.066406 281.339844 6.578125 283.824219 6.578125 286.878906 C 6.578125 289.933594 9.066406 292.417969 12.125 292.417969 L 366.234375 292.417969 C 369.296875 292.417969 371.785156 289.933594 371.785156 286.878906 C 371.785156 283.824219 369.296875 281.339844 366.234375 281.339844 Z M 366.234375 294 L 12.125 294 C 8.195312 294 4.996094 290.804688 4.996094 286.878906 C 4.996094 282.953125 8.195312 279.757812 12.125 279.757812 L 366.234375 279.757812 C 370.167969 279.757812 373.367188 282.953125 373.367188 286.878906 C 373.367188 290.804688 370.167969 294 366.234375 294 " fill-opacity="1" fill-rule="nonzero"/></g><path fill="#98d0f0" d="M 105.667969 159.703125 C 67.109375 159.703125 35.742188 128.378906 35.742188 89.875 C 35.742188 51.375 67.109375 20.050781 105.667969 20.050781 C 144.222656 20.050781 175.589844 51.375 175.589844 89.875 C 175.589844 108.582031 168.292969 126.128906 155.03125 139.324219 L 157.910156 154.644531 L 143.578125 148.550781 C 132.277344 155.847656 119.179688 159.703125 105.667969 159.703125 " fill-opacity="1" fill-rule="nonzero"/><path fill="#041734" d="M 71.03125 101.074219 L 71.03125 95.835938 L 79.152344 90.445312 C 81.546875 88.851562 83.167969 87.429688 83.976562 86.222656 C 84.765625 85.039062 85.164062 83.957031 85.164062 83 C 85.164062 81.84375 84.792969 80.898438 84.03125 80.113281 C 83.269531 79.332031 82.304688 78.953125 81.074219 78.953125 C 78.378906 78.953125 76.867188 80.578125 76.453125 83.925781 L 76.390625 84.453125 L 70.976562 83.105469 L 71.039062 82.683594 C 71.394531 80.296875 72.46875 78.226562 74.234375 76.53125 C 76.011719 74.820312 78.363281 73.953125 81.226562 73.953125 C 84.1875 73.953125 86.597656 74.8125 88.382812 76.507812 C 90.171875 78.210938 91.082031 80.402344 91.082031 83.015625 C 91.082031 85.328125 90.277344 87.417969 88.695312 89.230469 C 87.269531 90.863281 84.042969 93.117188 78.859375 96.109375 L 91.007812 96.109375 L 91.007812 101.074219 L 71.03125 101.074219 " fill-opacity="1" fill-rule="nonzero"/><path fill="#041734" d="M 103.820312 90.378906 L 103.820312 83.726562 C 103.820312 82.953125 103.855469 82.246094 103.933594 81.625 L 103.980469 81.125 L 98.160156 90.378906 Z M 103.820312 101.140625 L 103.820312 95.285156 L 92.355469 95.285156 L 92.355469 91.273438 L 104.039062 73.886719 L 109.546875 73.886719 L 109.546875 90.378906 L 113.425781 90.378906 L 113.425781 95.285156 L 109.546875 95.285156 L 109.546875 101.140625 L 103.820312 101.140625 " fill-opacity="1" fill-rule="nonzero"/><path fill="#041734" d="M 110.652344 109.488281 L 127.46875 65.539062 L 132.164062 65.539062 L 115.242188 109.488281 L 110.652344 109.488281 " fill-opacity="1" fill-rule="nonzero"/><path fill="#041734" d="M 136.113281 100.875 L 136.136719 100.382812 C 136.5625 92.308594 139.578125 85.148438 145.097656 79.074219 L 130.886719 79.074219 L 131.375 74.148438 L 150.605469 74.148438 L 150.605469 78.066406 L 150.507812 78.195312 C 147.375 82.253906 145.269531 85.8125 144.25 88.769531 C 143.230469 91.738281 142.605469 95.660156 142.394531 100.425781 L 142.375 100.875 L 136.113281 100.875 " fill-opacity="1" fill-rule="nonzero"/><path fill="#041734" d="M 146.390625 103.742188 C 138.703125 125.988281 114.320312 137.84375 92.039062 130.167969 C 69.757812 122.488281 57.886719 98.140625 65.574219 75.890625 C 73.097656 54.121094 96.605469 42.304688 118.488281 49.003906 L 115.421875 57.875 L 141.9375 51.742188 L 124.863281 30.554688 L 121.839844 39.304688 C 115.519531 37.324219 108.992188 36.542969 102.410156 36.992188 C 95.570312 37.453125 88.964844 39.214844 82.777344 42.226562 C 76.589844 45.230469 71.128906 49.339844 66.542969 54.429688 C 61.796875 59.699219 58.207031 65.796875 55.875 72.550781 C 53.539062 79.304688 52.601562 86.3125 53.082031 93.386719 C 53.546875 100.214844 55.3125 106.8125 58.324219 112.988281 C 61.335938 119.167969 65.449219 124.625 70.546875 129.199219 C 75.824219 133.941406 81.929688 137.527344 88.691406 139.855469 C 95.457031 142.1875 102.476562 143.125 109.558594 142.644531 C 116.398438 142.179688 123.003906 140.417969 129.191406 137.410156 C 135.378906 134.402344 140.839844 130.292969 145.421875 125.207031 C 150.167969 119.933594 153.761719 113.835938 156.09375 107.085938 L 146.390625 103.742188 " fill-opacity="1" fill-rule="nonzero"/><g clip-path="url(#0d3fed356f)"><path fill="#041734" d="M 198.714844 38.320312 C 198.714844 52.023438 187.585938 63.136719 173.863281 63.136719 C 160.136719 63.136719 149.007812 52.023438 149.007812 38.320312 C 149.007812 24.613281 160.136719 13.5 173.863281 13.5 C 187.585938 13.5 198.714844 24.613281 198.714844 38.320312 " fill-opacity="1" fill-rule="nonzero"/></g><path fill="#041734" d="M 126.777344 178.863281 C 126.511719 179.632812 126.238281 180.402344 125.996094 181.171875 C 125.933594 181.363281 125.875 181.558594 125.824219 181.75 L 125.667969 182.339844 C 125.554688 182.734375 125.433594 183.125 125.320312 183.511719 C 125.207031 183.898438 125.113281 184.289062 125.042969 184.667969 C 124.976562 185.046875 124.914062 185.414062 124.867188 185.78125 C 124.753906 186.519531 124.804688 187.289062 124.808594 188.140625 L 124.722656 188.167969 C 124.480469 187.816406 124.285156 187.433594 124.160156 187.019531 L 124.113281 186.863281 C 124.097656 186.8125 124.085938 186.757812 124.074219 186.707031 C 124.050781 186.601562 124.027344 186.492188 124.007812 186.386719 C 123.996094 186.277344 123.984375 186.167969 123.972656 186.058594 C 123.964844 186.003906 123.964844 185.949219 123.964844 185.894531 L 123.960938 185.726562 C 123.960938 185.285156 124.039062 184.847656 124.175781 184.441406 C 124.316406 184.035156 124.484375 183.652344 124.636719 183.273438 C 124.792969 182.894531 124.949219 182.519531 125.097656 182.144531 L 125.324219 181.578125 C 125.402344 181.386719 125.488281 181.195312 125.574219 181.007812 C 125.921875 180.265625 126.292969 179.539062 126.691406 178.828125 L 126.777344 178.863281 " fill-opacity="1" fill-rule="nonzero"/><path fill="#041734" d="M 125.09375 190.496094 C 125.210938 190 125.375 189.515625 125.585938 189.046875 C 125.695312 188.8125 125.8125 188.582031 125.953125 188.363281 C 126.03125 188.253906 126.105469 188.144531 126.1875 188.046875 C 126.269531 187.949219 126.351562 187.84375 126.433594 187.75 C 127.105469 186.980469 127.808594 186.246094 128.511719 185.515625 C 129.222656 184.792969 129.945312 184.074219 130.675781 183.371094 C 131.042969 183.019531 131.410156 182.671875 131.800781 182.324219 C 131.828125 182.304688 131.851562 182.28125 131.878906 182.261719 L 131.957031 182.195312 L 132.042969 182.128906 L 132.0625 182.109375 C 132.070312 182.105469 132.078125 182.097656 132.089844 182.09375 L 132.144531 182.058594 C 132.214844 182.007812 132.296875 181.972656 132.375 181.9375 C 132.453125 181.90625 132.535156 181.875 132.617188 181.863281 C 132.703125 181.839844 132.785156 181.832031 132.871094 181.824219 C 132.953125 181.824219 133.039062 181.820312 133.121094 181.828125 C 133.203125 181.835938 133.285156 181.855469 133.371094 181.871094 C 133.449219 181.894531 133.53125 181.917969 133.609375 181.953125 C 133.769531 182.019531 133.921875 182.113281 134.054688 182.242188 C 134.1875 182.371094 134.300781 182.535156 134.367188 182.722656 C 134.421875 182.878906 134.457031 183.03125 134.476562 183.175781 C 134.488281 183.25 134.496094 183.324219 134.503906 183.394531 C 134.507812 183.464844 134.511719 183.539062 134.515625 183.609375 C 134.53125 184.175781 134.453125 184.71875 134.308594 185.253906 C 134.234375 185.515625 134.148438 185.777344 134.035156 186.03125 C 134.011719 186.09375 133.972656 186.160156 133.945312 186.226562 L 133.894531 186.324219 L 133.84375 186.417969 C 133.808594 186.476562 133.773438 186.539062 133.738281 186.597656 L 133.625 186.769531 C 133.550781 186.886719 133.472656 186.992188 133.394531 187.101562 C 133.3125 187.207031 133.234375 187.3125 133.152344 187.414062 C 132.988281 187.617188 132.816406 187.816406 132.644531 188.007812 C 132.472656 188.199219 132.300781 188.386719 132.125 188.570312 L 131.601562 189.121094 C 131.425781 189.300781 131.253906 189.484375 131.085938 189.664062 C 131 189.753906 130.921875 189.84375 130.839844 189.9375 C 130.769531 190.023438 130.691406 190.105469 130.632812 190.195312 C 130.503906 190.375 130.402344 190.570312 130.324219 190.789062 C 130.246094 191.003906 130.191406 191.246094 130.121094 191.496094 C 130.050781 191.746094 129.972656 192.003906 129.855469 192.246094 C 129.792969 192.363281 129.730469 192.480469 129.65625 192.589844 C 129.585938 192.699219 129.5 192.800781 129.417969 192.902344 L 129.332031 192.84375 C 129.429688 192.613281 129.511719 192.378906 129.566406 192.144531 C 129.617188 191.90625 129.640625 191.667969 129.65625 191.417969 C 129.671875 191.167969 129.683594 190.910156 129.730469 190.636719 C 129.777344 190.363281 129.867188 190.082031 130 189.828125 C 130.0625 189.695312 130.140625 189.578125 130.214844 189.457031 C 130.289062 189.351562 130.367188 189.242188 130.441406 189.136719 C 130.59375 188.925781 130.753906 188.722656 130.910156 188.523438 L 131.855469 187.339844 C 131.933594 187.242188 132.007812 187.144531 132.082031 187.050781 C 132.160156 186.953125 132.234375 186.855469 132.308594 186.757812 L 132.523438 186.464844 C 132.589844 186.367188 132.664062 186.273438 132.726562 186.175781 C 132.859375 185.976562 132.972656 185.789062 133.066406 185.59375 C 133.167969 185.386719 133.253906 185.171875 133.328125 184.953125 C 133.480469 184.519531 133.578125 184.054688 133.597656 183.609375 C 133.605469 183.390625 133.589844 183.167969 133.542969 183 C 133.527344 182.945312 133.496094 182.894531 133.453125 182.84375 C 133.410156 182.789062 133.34375 182.746094 133.273438 182.710938 C 133.234375 182.691406 133.195312 182.675781 133.15625 182.664062 C 133.117188 182.652344 133.074219 182.640625 133.03125 182.636719 C 132.988281 182.628906 132.945312 182.628906 132.902344 182.625 C 132.863281 182.628906 132.816406 182.628906 132.777344 182.636719 C 132.734375 182.640625 132.699219 182.65625 132.65625 182.667969 C 132.621094 182.683594 132.582031 182.695312 132.550781 182.71875 L 132.523438 182.730469 C 132.519531 182.734375 132.515625 182.734375 132.511719 182.738281 L 132.496094 182.75 L 132.425781 182.800781 L 132.359375 182.851562 C 132.335938 182.867188 132.3125 182.890625 132.289062 182.910156 C 131.902344 183.214844 131.519531 183.546875 131.140625 183.878906 C 130.375 184.535156 129.621094 185.210938 128.875 185.890625 C 128.125 186.566406 127.378906 187.25 126.671875 187.964844 C 126.582031 188.054688 126.5 188.144531 126.414062 188.238281 C 126.324219 188.328125 126.253906 188.421875 126.175781 188.515625 C 126.03125 188.710938 125.902344 188.925781 125.78125 189.144531 C 125.542969 189.582031 125.34375 190.046875 125.191406 190.523438 L 125.09375 190.496094 " fill-opacity="1" fill-rule="nonzero"/><path fill="#041734" d="M 116.777344 173.601562 C 116.902344 174.117188 117.015625 174.636719 117.132812 175.15625 L 117.300781 175.929688 C 117.355469 176.191406 117.410156 176.449219 117.464844 176.707031 C 117.519531 176.964844 117.59375 177.21875 117.664062 177.472656 C 117.734375 177.726562 117.777344 177.984375 117.796875 178.246094 L 117.808594 178.441406 C 117.808594 178.507812 117.8125 178.570312 117.8125 178.636719 C 117.816406 178.769531 117.820312 178.902344 117.8125 179.035156 C 117.808594 179.167969 117.808594 179.300781 117.792969 179.4375 C 117.777344 179.574219 117.773438 179.707031 117.746094 179.855469 L 117.664062 179.882812 C 117.609375 179.832031 117.5625 179.777344 117.519531 179.71875 C 117.472656 179.660156 117.429688 179.601562 117.390625 179.542969 C 117.320312 179.421875 117.246094 179.296875 117.1875 179.171875 C 117.128906 179.046875 117.074219 178.917969 117.027344 178.789062 C 117.003906 178.726562 116.984375 178.660156 116.960938 178.597656 L 116.902344 178.402344 C 116.832031 178.144531 116.789062 177.878906 116.777344 177.609375 C 116.765625 177.339844 116.765625 177.070312 116.746094 176.804688 C 116.730469 176.539062 116.714844 176.273438 116.703125 176.007812 L 116.679688 175.207031 C 116.675781 174.675781 116.667969 174.144531 116.6875 173.609375 L 116.777344 173.601562 " fill-opacity="1" fill-rule="nonzero"/><path fill="#041734" d="M 122.0625 179.578125 C 122.007812 179.941406 121.941406 180.300781 121.878906 180.660156 C 121.8125 181.015625 121.742188 181.371094 121.671875 181.726562 C 121.632812 181.902344 121.617188 182.085938 121.59375 182.265625 C 121.570312 182.441406 121.519531 182.613281 121.445312 182.777344 C 121.371094 182.941406 121.28125 183.101562 121.175781 183.253906 C 121.121094 183.332031 121.0625 183.410156 121 183.488281 C 120.964844 183.523438 120.933594 183.5625 120.898438 183.601562 C 120.859375 183.636719 120.824219 183.675781 120.777344 183.710938 L 120.691406 183.691406 C 120.605469 183.488281 120.570312 183.289062 120.554688 183.09375 C 120.539062 182.898438 120.546875 182.710938 120.574219 182.527344 C 120.585938 182.4375 120.605469 182.34375 120.632812 182.257812 C 120.660156 182.171875 120.695312 182.085938 120.734375 182.003906 C 120.816406 181.835938 120.90625 181.671875 120.980469 181.507812 C 121.125 181.171875 121.28125 180.839844 121.449219 180.511719 C 121.617188 180.1875 121.785156 179.863281 121.976562 179.546875 L 122.0625 179.578125 " fill-opacity="1" fill-rule="nonzero"/><path fill="#041734" d="M 267.214844 224.933594 C 266.800781 224.996094 266.363281 225.074219 266.015625 225.257812 C 265.933594 225.316406 265.878906 225.355469 265.894531 225.429688 C 265.902344 225.507812 265.941406 225.589844 265.988281 225.667969 C 266.085938 225.820312 266.226562 225.964844 266.367188 226.101562 C 266.511719 226.238281 266.667969 226.371094 266.832031 226.492188 L 267.332031 226.886719 C 267.660156 227.148438 267.996094 227.398438 268.332031 227.644531 C 269.675781 228.621094 271.078125 229.5 272.507812 230.289062 C 275.375 231.863281 278.398438 233.070312 281.527344 233.875 C 283.089844 234.28125 284.679688 234.589844 286.289062 234.808594 C 287.886719 235.03125 289.492188 235.148438 291.078125 235.101562 C 292.660156 235.046875 294.234375 234.820312 295.710938 234.273438 C 296.449219 234 297.160156 233.636719 297.816406 233.167969 C 298.144531 232.9375 298.457031 232.671875 298.742188 232.375 C 298.886719 232.230469 299.023438 232.074219 299.148438 231.90625 C 299.214844 231.824219 299.273438 231.738281 299.328125 231.648438 C 299.375 231.5625 299.457031 231.464844 299.449219 231.371094 C 299.511719 231.582031 299.421875 231.808594 299.375 232.015625 C 299.308594 232.230469 299.230469 232.441406 299.140625 232.644531 C 298.945312 233.046875 298.707031 233.429688 298.433594 233.792969 C 297.890625 234.519531 297.191406 235.132812 296.429688 235.648438 C 294.898438 236.667969 293.113281 237.25 291.332031 237.546875 C 289.546875 237.847656 287.742188 237.863281 285.972656 237.730469 C 284.210938 237.585938 282.457031 237.285156 280.746094 236.820312 C 277.320312 235.902344 274.054688 234.335938 271.257812 232.195312 C 269.855469 231.132812 268.566406 229.921875 267.445312 228.582031 C 267.164062 228.25 266.894531 227.902344 266.636719 227.550781 L 266.273438 227.015625 C 266.144531 226.832031 266.023438 226.644531 265.914062 226.441406 C 265.804688 226.242188 265.707031 226.027344 265.660156 225.78125 C 265.636719 225.660156 265.625 225.527344 265.667969 225.394531 C 265.6875 225.335938 265.722656 225.25 265.777344 225.203125 C 265.828125 225.15625 265.882812 225.128906 265.933594 225.105469 C 266.363281 224.9375 266.789062 224.941406 267.214844 224.933594 " fill-opacity="1" fill-rule="nonzero"/><path fill="#f3f5f9" d="M 174.632812 37.878906 L 173.589844 20.09375 L 172.609375 36.835938 L 161.046875 46.636719 L 174.632812 37.878906 " fill-opacity="1" fill-rule="nonzero"/><path fill="#041734" d="M 225.191406 159.402344 C 225.046875 160.273438 225.183594 161.160156 225.605469 161.890625 C 226.015625 162.632812 226.652344 163.230469 227.359375 163.710938 C 228.792969 164.675781 230.480469 165.253906 232.1875 165.648438 C 233.902344 166.050781 235.660156 166.253906 237.414062 166.3125 C 239.175781 166.378906 240.917969 166.292969 242.632812 166.003906 C 244.347656 165.726562 246.019531 165.226562 247.601562 164.585938 C 249.179688 163.945312 250.699219 163.214844 252.105469 162.335938 C 252.808594 161.894531 253.472656 161.40625 254.082031 160.867188 C 254.691406 160.324219 255.242188 159.730469 255.683594 159.070312 C 256.132812 158.410156 256.464844 157.683594 256.621094 156.890625 C 256.703125 156.496094 256.726562 156.085938 256.710938 155.660156 C 256.6875 155.238281 256.609375 154.804688 256.492188 154.367188 L 256.734375 154.234375 C 257.355469 154.953125 257.769531 155.90625 257.875 156.925781 C 257.984375 157.945312 257.789062 158.996094 257.414062 159.945312 C 257.03125 160.898438 256.484375 161.765625 255.839844 162.535156 C 255.199219 163.304688 254.46875 163.980469 253.691406 164.582031 C 252.128906 165.78125 250.351562 166.640625 248.515625 167.195312 C 246.675781 167.753906 244.789062 168.054688 242.914062 168.234375 C 239.132812 168.578125 235.367188 168.136719 231.808594 167 C 230.921875 166.707031 230.046875 166.359375 229.207031 165.941406 C 228.367188 165.519531 227.550781 165.027344 226.824219 164.410156 C 226.101562 163.792969 225.449219 163.046875 225.070312 162.148438 C 224.882812 161.699219 224.773438 161.222656 224.75 160.742188 C 224.726562 160.265625 224.792969 159.789062 224.917969 159.339844 L 225.191406 159.402344 " fill-opacity="1" fill-rule="nonzero"/></svg>